<mxfile host="Electron" agent="Mozilla/5.0 (Windows NT 10.0; Win64; x64) AppleWebKit/537.36 (KHTML, like Gecko) draw.io/24.7.8 Chrome/128.0.6613.36 Electron/32.0.1 Safari/537.36" version="24.7.8">
  <diagram name="13_Print_List_After_Remove" id="EFcXfrSKIzgAI5UtorPG">
    <mxGraphModel dx="2960" dy="1731" grid="1" gridSize="10" guides="1" tooltips="1" connect="1" arrows="1" fold="1" page="1" pageScale="1" pageWidth="850" pageHeight="1100" math="0" shadow="0">
      <root>
        <mxCell id="0" />
        <mxCell id="1" parent="0" />
        <mxCell id="qt4YQUw-A0yyjYUw5AoC-2" value="Ask user for input or use predefined list" style="whiteSpace=wrap;strokeWidth=2;" vertex="1" parent="1">
          <mxGeometry x="631" y="419" width="301" height="33" as="geometry" />
        </mxCell>
        <mxCell id="qt4YQUw-A0yyjYUw5AoC-3" value="Store indices to remove {0, 2, 4, 5}" style="whiteSpace=wrap;strokeWidth=2;" vertex="1" parent="1">
          <mxGeometry x="653" y="503" width="256" height="33" as="geometry" />
        </mxCell>
        <mxCell id="qt4YQUw-A0yyjYUw5AoC-4" value="Use enumerate() to loop through index, value of list" style="whiteSpace=wrap;strokeWidth=2;" vertex="1" parent="1">
          <mxGeometry x="592" y="586" width="378" height="33" as="geometry" />
        </mxCell>
        <mxCell id="qt4YQUw-A0yyjYUw5AoC-5" value="Check if index is NOT in remove set" style="whiteSpace=wrap;strokeWidth=2;" vertex="1" parent="1">
          <mxGeometry x="370" y="688" width="271" height="33" as="geometry" />
        </mxCell>
        <mxCell id="qt4YQUw-A0yyjYUw5AoC-6" value="Include value in final list" style="whiteSpace=wrap;strokeWidth=2;" vertex="1" parent="1">
          <mxGeometry x="494" y="790" width="193" height="33" as="geometry" />
        </mxCell>
        <mxCell id="qt4YQUw-A0yyjYUw5AoC-7" value="Skip this value" style="whiteSpace=wrap;strokeWidth=2;" vertex="1" parent="1">
          <mxGeometry x="737" y="790" width="119" height="33" as="geometry" />
        </mxCell>
        <mxCell id="qt4YQUw-A0yyjYUw5AoC-8" value="Return new list without removed indices" style="whiteSpace=wrap;strokeWidth=2;" vertex="1" parent="1">
          <mxGeometry x="846" y="688" width="305" height="33" as="geometry" />
        </mxCell>
        <mxCell id="qt4YQUw-A0yyjYUw5AoC-9" value="Print modified list" style="whiteSpace=wrap;strokeWidth=2;" vertex="1" parent="1">
          <mxGeometry x="926" y="790" width="144" height="33" as="geometry" />
        </mxCell>
        <mxCell id="qt4YQUw-A0yyjYUw5AoC-11" value="" style="curved=1;startArrow=none;endArrow=block;exitX=0.5;exitY=1;entryX=0.5;entryY=0.01;rounded=0;exitDx=0;exitDy=0;" edge="1" parent="1" source="qt4YQUw-A0yyjYUw5AoC-22" target="qt4YQUw-A0yyjYUw5AoC-2">
          <mxGeometry relative="1" as="geometry">
            <Array as="points" />
            <mxPoint x="781.4901960784314" y="369" as="sourcePoint" />
          </mxGeometry>
        </mxCell>
        <mxCell id="qt4YQUw-A0yyjYUw5AoC-12" value="" style="curved=1;startArrow=none;endArrow=block;exitX=0.5;exitY=1.02;entryX=0.5;entryY=-0.01;rounded=0;" edge="1" parent="1" source="qt4YQUw-A0yyjYUw5AoC-2" target="qt4YQUw-A0yyjYUw5AoC-3">
          <mxGeometry relative="1" as="geometry">
            <Array as="points" />
          </mxGeometry>
        </mxCell>
        <mxCell id="qt4YQUw-A0yyjYUw5AoC-13" value="" style="curved=1;startArrow=none;endArrow=block;exitX=0.5;exitY=1.01;entryX=0.5;entryY=0.01;rounded=0;" edge="1" parent="1" source="qt4YQUw-A0yyjYUw5AoC-3" target="qt4YQUw-A0yyjYUw5AoC-4">
          <mxGeometry relative="1" as="geometry">
            <Array as="points" />
          </mxGeometry>
        </mxCell>
        <mxCell id="qt4YQUw-A0yyjYUw5AoC-14" value="" style="curved=1;startArrow=none;endArrow=block;exitX=0.26;exitY=1.02;entryX=0.5;entryY=0;rounded=0;" edge="1" parent="1" source="qt4YQUw-A0yyjYUw5AoC-4" target="qt4YQUw-A0yyjYUw5AoC-5">
          <mxGeometry relative="1" as="geometry">
            <Array as="points">
              <mxPoint x="505" y="654" />
            </Array>
          </mxGeometry>
        </mxCell>
        <mxCell id="qt4YQUw-A0yyjYUw5AoC-15" value="Yes" style="curved=1;startArrow=none;endArrow=block;exitX=0.5;exitY=1.01;entryX=0.35;entryY=-0.01;rounded=0;" edge="1" parent="1" source="qt4YQUw-A0yyjYUw5AoC-5" target="qt4YQUw-A0yyjYUw5AoC-6">
          <mxGeometry relative="1" as="geometry">
            <Array as="points">
              <mxPoint x="505" y="756" />
            </Array>
          </mxGeometry>
        </mxCell>
        <mxCell id="qt4YQUw-A0yyjYUw5AoC-16" value="No" style="curved=1;startArrow=none;endArrow=block;exitX=0.74;exitY=1.01;entryX=0.25;entryY=-0.01;rounded=0;" edge="1" parent="1" source="qt4YQUw-A0yyjYUw5AoC-5" target="qt4YQUw-A0yyjYUw5AoC-7">
          <mxGeometry x="0.0826" y="-1" relative="1" as="geometry">
            <Array as="points">
              <mxPoint x="708" y="756" />
            </Array>
            <mxPoint as="offset" />
          </mxGeometry>
        </mxCell>
        <mxCell id="qt4YQUw-A0yyjYUw5AoC-17" value="" style="curved=1;startArrow=none;endArrow=block;exitX=0.65;exitY=-0.01;entryX=0.41;entryY=1.02;rounded=0;" edge="1" parent="1" source="qt4YQUw-A0yyjYUw5AoC-6" target="qt4YQUw-A0yyjYUw5AoC-4">
          <mxGeometry relative="1" as="geometry">
            <Array as="points">
              <mxPoint x="678" y="756" />
              <mxPoint x="678" y="654" />
            </Array>
          </mxGeometry>
        </mxCell>
        <mxCell id="qt4YQUw-A0yyjYUw5AoC-18" value="" style="curved=1;startArrow=none;endArrow=block;exitX=0.54;exitY=-0.01;entryX=0.53;entryY=1.02;rounded=0;" edge="1" parent="1" source="qt4YQUw-A0yyjYUw5AoC-7" target="qt4YQUw-A0yyjYUw5AoC-4">
          <mxGeometry relative="1" as="geometry">
            <Array as="points">
              <mxPoint x="811" y="756" />
              <mxPoint x="811" y="654" />
            </Array>
          </mxGeometry>
        </mxCell>
        <mxCell id="qt4YQUw-A0yyjYUw5AoC-19" value="End of loop" style="curved=1;startArrow=none;endArrow=block;exitX=0.69;exitY=1.02;entryX=0.5;entryY=0;rounded=0;" edge="1" parent="1" source="qt4YQUw-A0yyjYUw5AoC-4" target="qt4YQUw-A0yyjYUw5AoC-8">
          <mxGeometry relative="1" as="geometry">
            <Array as="points">
              <mxPoint x="998" y="654" />
            </Array>
          </mxGeometry>
        </mxCell>
        <mxCell id="qt4YQUw-A0yyjYUw5AoC-20" value="" style="curved=1;startArrow=none;endArrow=block;exitX=0.5;exitY=1.01;entryX=0.5;entryY=-0.01;rounded=0;" edge="1" parent="1" source="qt4YQUw-A0yyjYUw5AoC-8" target="qt4YQUw-A0yyjYUw5AoC-9">
          <mxGeometry relative="1" as="geometry">
            <Array as="points" />
          </mxGeometry>
        </mxCell>
        <mxCell id="qt4YQUw-A0yyjYUw5AoC-21" value="" style="curved=1;startArrow=none;endArrow=block;exitX=0.5;exitY=1.01;entryX=0.5;entryY=0;rounded=0;entryDx=0;entryDy=0;" edge="1" parent="1" source="qt4YQUw-A0yyjYUw5AoC-9" target="qt4YQUw-A0yyjYUw5AoC-23">
          <mxGeometry relative="1" as="geometry">
            <Array as="points" />
            <mxPoint x="998.5000000000002" y="873.0000000000002" as="targetPoint" />
          </mxGeometry>
        </mxCell>
        <mxCell id="qt4YQUw-A0yyjYUw5AoC-22" value="&lt;font style=&quot;font-size: 24px;&quot;&gt;Start&lt;/font&gt;" style="ellipse;whiteSpace=wrap;html=1;fillColor=#008a00;fontColor=#ffffff;strokeColor=#005700;" vertex="1" parent="1">
          <mxGeometry x="689.37" y="253" width="184.25" height="83" as="geometry" />
        </mxCell>
        <mxCell id="qt4YQUw-A0yyjYUw5AoC-23" value="&lt;font style=&quot;font-size: 24px;&quot;&gt;End&lt;/font&gt;" style="ellipse;whiteSpace=wrap;html=1;fillColor=#e51400;fontColor=#ffffff;strokeColor=#B20000;" vertex="1" parent="1">
          <mxGeometry x="906" y="920" width="184.25" height="83" as="geometry" />
        </mxCell>
        <mxCell id="qt4YQUw-A0yyjYUw5AoC-24" value="&lt;font style=&quot;font-size: 36px;&quot;&gt;13. Write a Python program to print a specified list after removing the 0th, &lt;span style=&quot;white-space: pre;&quot;&gt;&#x9;&lt;/span&gt;2nd, 4th and 5th elements.&lt;/font&gt;" style="text;whiteSpace=wrap;html=1;" vertex="1" parent="1">
          <mxGeometry x="20" y="40" width="1630" height="90" as="geometry" />
        </mxCell>
        <mxCell id="qt4YQUw-A0yyjYUw5AoC-25" value="" style="shape=image;verticalLabelPosition=bottom;labelBackgroundColor=default;verticalAlign=top;aspect=fixed;imageAspect=0;image=data:image/png,iVBORw0KGgoAAAANSUhEUgAABIgAAAFyCAYAAACeHeEbAAAAAXNSR0IArs4c6QAAAARnQU1BAACxjwv8YQUAAAAJcEhZcwAADsMAAA7DAcdvqGQAAHT3SURBVHhe7f1/jBvZfed7f2T+kQRwqxd5BAWWxGcWQ4uj7fQf8doDqbJ8DHsARTS4WQuGIoz/uFFggDcVx+CGMxAGC2jHNxMBgSF4iBATL/MUMIhy//CgLQw08S2YioCJ4cuk1Bg78R+9vT0c11wNWq1BBK2xrTawGD/gzvNHVZHF4o+u4o9udvP9AogZkdWHp06dKrK+POd7jvyP//E/PtYh9Gu/9mvRpwDssf/5P/9n9CkAAAAAwAw6srW1dSgDRAAAAAAAAIjnyP3794cGiNLpdPQpAAAAAAAAHCKfiD4BAAAAAACA+UKACAAAAAAAYM4RIAIAAAAAAJhzBIgAAAAAAADmHAEiAAAAAACAOUeACAAAAAAAYM4RIAIAAAAAAJhzcxkg2tm4q1u3bunu6lb0JQCYCq47B9O0jtu0yp0Fh3nfcDDRJwEAiCf1J3/yJ/9H9MmwxcXF6FMH3I7+n3/+r3r0kfTRkyNaXDqlo9FNMFU7G3f1/R/+s3YWl3SKxsdc4LpzMCU/bjtbq/rR6j398z+va33de/Re65KXO5KtVd36u3t93j+uLa3e+jvd8/djfX1d6zuLWhpa2B7t2z6Kd4wxOw5fnzzM36MO874NNPa1ev8dmuM2o8diNtp3lO8EOIjGHkG0s3FXt+5uaMf/99bqra5/J+H9wnNXGwP/eEurt27p7uANYljQybQX9FpMn9LJ6MshOxt3dffWqg7T703Br2jdj7u6u7qhrXGa1XcY2wx743D3nfjXnSQOd5vNgmTHbWfjru44m9rejr4Slazcg2U6+zYrfT3uMZ6V+kJT65PTcrD6zo62NlZ1N/Sd8u7q1sB7gAO1bztb2lgNf2e+q9Wx7j9mU/i+YNAAuwN13Padd6/ae681+P6Y9p0dHAvP2AGiJ9vb0tEFLUiSdrTzRKF/z6aFM+d16dIlnT87/GvCk+1t7fId8JDY1vbmmpw7w4Jz8cxPm2HSDnvfiXvdSeKwt9ksiH/cdrS1uS1pUcvGBV26dKn96Pen8cvdTyd1tr0fhtLRlweYxr7NRl+Pf4xno74ITKNPTstB6jtbq3fkrG121Xd709GdATfCB2bfdjZ0946jtc2uPdPm2h3dGhRFOYh2NnRvbfcjcmCO2wF1cNp3tO8EB8nBORbTNWaAyAsILS4GQ8ue7Pqr2jALC0e9YMWT6Cu+nR158adZDj8dDGmj88X20oULMtKLkra1dq//hzoAYBj/8y+9pDMn+Yw6nDjGQNvWqpxNSYtpGReC75OGvK+Ta7o37i+O+2lhQUcX012B4AuGfzu8+eCQjC7Y0ca9NW0rreXlw5ZOZP8tLnf/iHDp0iVdOn9mpgdQAIEj9+/f/zj6ZFg63S8+uKXVW442o09HpQ1dSvJrzdaqbjmbShu9v8ZJQUR/TUfbr3v1eLJ8QefPSBur99rR/sX0ss6dDZ+Ifercr35+HYZZXL6g82fCp/iOtjbWtd7+FWVRi+klnTt7crwLwc6WNtbXtbnZiWYuLqa1dO6sRv1uurNxV3fWtvu0cdA+aRmXzuqk39bbi8u60OeCtrV6S87mopYvnNeZJ8naLFyHpZ1V3QvabTGt5XNn1dW03l9oa/We1ndpB69cafnCOS1shY7HwHLj6ZR7Xie3dqtvkj6p2Pvm8bZ1un7RCvjHYkHJ6xCnn4XOvVMP7np1WFzWhfMnteWXv5g2kv86O+r5FrvN4pneMY553UnSf0dqswTi9IeRRK+TXnstLZ0ZcB7HORbqU+4u119//zq/DC8qvXxOZ7sKjn/cOvy/Gbpd0nKT7Ju/7Wbv9Kfe6/0odtu/cfetT3+Yub6+SxuMVN9oOww6xkmuO0kkLTdGfUf6vIhxXU/yvWRBifpk7Otv5y9ifh7HlLDvjPQ9arfjllBve/uix2nq+7Z3+u3zSH1nqtfqeLrbuc+9wSwdt5jX6tk4FuFras8bdsxS+450fdjl81CKV+6onxe7lZukPyQ8Fp5oHfp8hznAxhxBNGU7G7o7NCeRb3tLq7fudA0F3d5c0509GgbaO8R2e+gQ23h2tHHPG94avmZtb2/KubMHcyMXTvq/Am32yU20pQeb/q+oI58Ei3qyfld3wu22vam1nn3b0cbdO3L6tkO/vrGtzXuR49G33OQ2793qU99+dYjbJ5PsW2fb2OLWIUE/e7LuX7zl7f966GZie3O9f1tMVJI2S27yxzip6fXfeJL1hyR6r5Neeznr/UuNeyx6yx1y/R04beBeT7mx7GyEcm/4N6KbTqycA3HE37edzrYJLhH7qXffhveHyYvZ12fmGPumct2JX26S+sb/vIh5XY/zvWQxPcaX87jX3xE+j6ci7veoZMctngHtvbOljXX/fba3NWhCwO7i79tsiN93ZuJa7U8tW1y+MGIQZJBpHLeY1+rOKwfrWCQyjfadxvXBk6Tc+J8XycqN3x+S6a3DXn+Hma4RVzE7qlNLS1paWtTO+gMtGpf0O+eWtJT+hLbcRzoe/DtpVvMjv9CW+0gf/au0Msd+RTv/zz/rvz7a1ke/5v1bj13984Mj+n//ZkbHfkXeyb3+QI+ePNITLWrZ+II+f+4zWkovasd9oCddq1UEde7U+8liureOR0/52yxpcWddD56kZVz6HZ1r/+2SV5fA1qr+7r8+kdKGLvzOOX1maUlLS2kt7jzWg0eb+uXI2eZ/qcePf6njv2l4+9Qu19WDJ090ZMRyf/n4fbmPPtJiOvT3Ozva+OkP9bMnktK/qXOnjkr6FR371R2tP3jUaf/A1n/TvQdPlP7Nc14ZCdvMq8O2PvroIy2mDX3hd87pMwP2bWfjR3I2P5IWl2V84fM695lQ+z7Z1qNfdrLnB/v20UfatdwkOvWNlPuJx3oQ7p9Soj6ZZN+09VP98GdPvKj6737e62dBmUrLuPR5Pd1u4vh1iN3PfvlY77uPtP3RR1pcvqDfzfxS6w8e6cmTj5Q2Lsn4V1tyH23rV44nbOOEfSdRmyUwrWMc+7qTpP8mbLNkYvaHxLb03+490JP0si78jt9/l5aUXvyEfnnkV3TqWKfQRMci0fV3Rxs/crTZVa6//See6JdHT/mfK4p/3Pzz4qPuZ7v96nF9OnNMXtExy1XCfdv6qbdt13mxpPTijtwHT7qv9yPz+v3A+ibZt7j9YRb6epJjnLS+SY5xoutOEgnKjVvfhJ8X8a/rMb6X/NvP6+l2I8Tvk7Gvv0r6eRxTwr6T5HtU7OOWxM5D/Tf3kT46ntFnTh31b7Z/pL/7p5/p0ZPgbDmif5XO6NixKe7bnvKvW4un9Zl/E1zTk/ed6V+rd+N/Fv7qsr5w9qR+JbQPXe8/zT6ZSMxr9cwcC/+a+sjtrPS1taWd/9+vavHY0Xa/mZn2Hfn6sMt3grjlJvy8iF1ukv6Q8FjE/g5zgI03gmhnR0+0qE4Kom1th/89Fi8Z5OLiorY3B6+I4EnLuHS+kxNg4aRO9ZsZNwVb3lAaGV3D2hZ08uyS0pI2H4waSVzQmbNnI3kOFnRyQju26YR+/bxzR2v+L0FG+KeEk6eUlnraf+vBprS4rKVxf3Xwhwx6e9jZtyc7wbsFCUHTMs6Hh+wt6OTZc1peHDAXfNdyR7O4fKG73DPeMY62j2e3Ppls33Z2vN/h0kuhYfULJ7W0vCjpifrv2m51UPJ+trisc+FhY34/8PKHTVuyNhvFZI/xiKbUf+NJ2B+S2tzUVuin/4WTZ3T2TP8LSZxjkej6u7Mlr/uE29ff/syIw7MXzuh8NGFj2phIzoH4+7ajjXV/267zQiO9755K0B8mL2Zfn4ljHDal606MchPXN9bnRcLr+rDvJUrr1LjdJ8b1d7TP4ymJUd/Exy2BRclfxSwYUbWo9LIhYxI5bWLs217aWnW0qUUtnxtwvu9a39m4Vu9s3NPa9pD9GNeu7ZBUzGt12K512ONjsb2tzbVBI1wS2nXfkpnW9SFxubE+L0YoV5Nvs7Z9/Q4zXSMFiHaCJRHvrGlb21q74wcanE2p/e/eqQC7WlgI/fr1RNvbi0ovpbXYNZz4qHpyVPdZtvTk2Uu6dOlsz/OT5a/apk054eHm4aHoT3ZGvxjsbGn1bmRZ+l3mSI5k0ftAv3A+2l7+F55w++9saH1TWkyHT8zRpHf9JhckBO09vtKCvGtG75ex3csdTW9y9KPqO8BO/evc3SeT7Vtwgdx8EPpw2dnS+tp2/3NC/cvue14k6GfR4x7993Qla7NRTPYYj2Za/Te2BP0hvpM6a6S1qG2tOXf85YI3+kwT6dj9WCS8/j7xhqfve/vGknDf5F3H9yJMOxnJ+8NUTKWvxzXCMdb0rju7l5u8vtHPh+i/PUmv637gqut7YTDtvV8ZycS5Poz0eTwlu9c3+XFLYnvTaU+zWEwbunDpvHeDNIE5O7vv297ZWr0rZ1NKG4NzS8Wu735eq9tTy84N3I9xxW6HJBJeq2PXYSrHIrzSl/e4cGHZ+3FhAsnbY+9bLNO6PiQvN/r5EP23J3m5mnibaXa+w0zRSAGiadvefiJtPdDmYlonTy7oqL+yWfCrzVzwc2VsTuBDtp+uVczOex/ovSeitHDSOwE2/V6/s7WpbaW1NK1PFvR3csn/JXVNd4KL4R3/YjjOl+Ip9zMcMNPsDyfP6vylC7pgLCu9uK3NtTU5d27p7ri5U2I6vJ8f460eum/2uT9Mta9jqk4uLXd9L9HWA29kx9jDmmOa1ufxQRL6QXcxvSzjwqXQL/TBTdzeBsumY8dPTL2ttDFuvp79v1Z73+Gl7bU7XTfXd/yl7oPZBXfHDGJM1FSu1Xt7LBYWzuhssAoeDof9/g4zZSMFiBbOnPciosuL8oYle4EGI+0NCbtw6ZIuXRocZY9jZ+eJdHRBC/6vRX2HjO2JYSMS/F+32vvc5zHq0PP1Ne8XmWWju+y9vsD4SSG94dz+UPBdvwANa7MR9J02NANfQIIpK0cXRjrGUoJ921rX2nY0J9ii0ssXhqwesLuZ6WdtMfpO3DabhEkc46mL0WYxTb8/LHhDcM9f0qVLF+QNUIyZ3LznWCS7/ga/+o89pHhPJNk3f2RVn4Sw3lDsWZa0Pxykvq5d6pvkGM+CKdc3yXW963tJMO19nOTUCU3p87jbsL6TxLSOWzCic1Hp6Ko9wbV64OiMSe3btAXJyL0fVc+O3cEO8rVa+3bcpnOt3vtjsfuPVPvRvtO6Phy0cqPiHouk32EOjpECRIEnXeHX4IN8HP4J+2Rd99a220PCTp5KS5vrWh/6gTN5R72rhza3+uUf8RxdXPSGDK5uxexMyRxdONru6DtbG1pdn86Fa7AFnVlKS9trWt/Y0ub28F/p4rRZfEEOhE05q+HyvOVl17b3+te60B7tbGn1nvehNdrQxWT7Fsy5XTp3ThcuBBfC85GluUe3//0sTt9J1majmeQxnr7d22w0E+8POxtaXd3QVtdFckEnvSWJtN33s2P3Y5Ho+hvkLlm7o7sbkf6zsTpzH+jx9y2YhrOp9WAndra0cfeWhozA318j9IcD09d9ceob/xjPhunUd5Trut9Xtje1teNNL+s/HWE6pv55HKPvJDGd49Y5X9furYbSEISu1eEcTb5J71vY1qo3BWkyv+B7waG17cUxljuPGv1aPal9C37gjz68H/w7swuiy7NP87jFNdlr9ejHIrkd7Wyt6t7athdQ7RNo3M/2nc714eCVG4h1LEb4DiPtaGNC5/FeOHL//v2Po0+GpdODI7Rbq7fkPFnWhfNntBBcTI8aY/yCElyQ5Y9M8ue+72zo7h3vA0eLwftJ0pZWbznaTMd4z63VofNVF5cv9FwQB/1N97bhOvca9YNlZ+Nue8hnP+OWm+zv/XZWtP37iNFmA+vg/213+4beO2oxLSOUNylZufENPRY9fS9Bnxxh3/pZXExr6dzZ0C948eswrFyF+5l/Dipow2ib+v/uafskYvSdJG2WxNB26GnH+O07aJ8Co58X3a9F9d02hqHtMMZ1p+sa3iN0rd+tDj1tnvD6O6C9pEUtXwiNeh24nad/+8boF4nKTbBvA9p3MZ2WNjd1NNoOcSWpb5JtB9TX090f2gaU3/9Y7G5oP4u2b1uMYxyIVd8ExzjJeyeSpNyY9U38eTHKdd37G6XT2txUoj4TGPX6O6zv9H4ej2BAvfvVIU59Yx+3xIaUO6g/TXzf2i+G+lDkej6CYcdYUtd34UT1HXDtG36tnuy+9TNwHwJTO2672+1YhN8vUR1GOhYxDGgraVFp43z/Mgf8zV6079DzOHp9GFDPwEjXncSfFzHLHbXNBuxjnL7jGfAdputvBmwzQ8YYQRQdMTSJ+ZxBRFfdI4X84cSS9naqx8mzumCkByeplbwRNucvyEgvauhmCS2cOa8Ly+lQmYteAkBjeaLvE09nNZNdf6WL1WZJnNTZC4aW2x1Anbbo+6VxjwSJvfte6eOKv28L/gpO8t66y/b2ppw7q32G5+9upvpZrL4Tv83GNpFjPGWx2iy+qfWHhTM611NPv+w4H5IDj0XC6+/Js/588e7+k55iws7RJdi3hTM6byx32ndxUWnjgs4v7fqX+2OU/nBQ+nogVn0THOOZMK36jnJd99MPbG72GWE0XdP6PG6L1XeSmNZx65TbMeha7Zv4vgW8pLEzb6Rr9Qzs29SO2+6mdq0e6ViMYtHP0zUgOKT9bd+9uD4cjHJ9cY7FKN9hFk4q7V8rF/f4M2sUY40gwvzwkvTNfsRzGgZGoPdMEC1Py7gQ/WVyRxurd7TWniMffg1x7f8xRoBjAWB28Xk8q3a2VnXP8RZSOWzfVQ/zvgGYPWOMIMJ82Gkv77m4vMSH0r7ojM6LLt64s/NE25vyItd7lZwLAIC5xOfxrNla9VficrwVutLG4QmgHOZ9AzC7GEGE/qJzMHfLPXSI7f+IhuHzbaXovF8ktf/HGAGOBYDZxefxrPFGuE8o/9OMOcz7BmB2MYIIuwjyAMxncGg2hObbRubELi6mtWzwZRQAgOnj83jWnDzrr7x1/vAFUA7zvgGYXYwgAgAAAAAAmHOMIAIAAAAAAJhzBIgAAAAAAADmHAEiAAAAAACAOUeACAAAAAAAYM4RIAIAAAAAAJhzBIgAAAAAAADmHAEiAAAAAACAOUeACAAAAAAAYM4RIAIAAAAAAJhzBIgAAAAAAADmHAEiAAAAAACAOUeACAAAAAAAYM4RIAIAAAAAAJhzBIgAAAAAAADmHAEiAAAAAACAOUeACAAAAAAAYM4RIAIAAAAAAJhzBIgAAAAAAADmHAEiAAAAAACAOUeACAAAAAAAYM4RIAIAAAAAAJhzBIgAAAAAAADmHAEiAAAAAACAOUeACAAAAAAAYM4RIAIAAAAAAJhzBIgAAAAAAADmHAEiAMCe2dm4q1u3bunu6lb0JQAAAAD7aG4CRMFNyZ7dk2yt7u37YWr2vO8kcdD62T7Wd2drVXfv3tKtW53HftQjsX1ss8nb0dbmtiRpe/OBDsUuAQAAAIfE2AGinY27unV3Qzv+v7dWb3X9W9rRhn9T1nOD49/43Lq1OtaNws7GXd0ds4z5s6Ot1bu6eyt6vIDDZ2fjru44m9r2YhNzaTaukws6mV6UJC2mT+lk9OUZMxttBgAAAOyNsQNET7a3paMLWpAk7WjniUL/lqQn7ZuyzQfdX7O3Hmx2/XtUT7a3Ncf3fcnseIGhW7fuyNmk3TAPglEri1o2LujSpUvtx9lZj1BM0KxcJxfOnNelS5d0/gA0/qy0GQAAALAXxgwQeQGhxcWj/r87waCodDotdU0p2NKDzUWl/V+TsTe21r3AkHezvKx0dAPg0PGvS+klnTnZCV0DAAAAADqO3L9//+Pok2HpdL8QwpZWbznadfxP2tCls9LqLUcyDMlxJMP/1X5rVbfWF2WkN+WsHZVx6WxousGOtjbWtb626f96u6jF9JLOnT3ZGZm0tapbzvAaLC5f0Pkz/timjbu6s7attHFJSzuruheUvZjW8rmz8jcL2dHW6j2th0bZLC6mtXTurHrvMf36bvZOYUkH+zsrtjZ098GC35b+cVxc1oXzZ0KjvhCWuO/sbGljfV2bu/Ydr/2fLF/Q+TPSxuo9rfn5WRbTyzp3NnpMptjP/DoH7y8tKr18Tmd7d25K50WMc35kfj9PG7o0tJHi7lvS45ZEgjaL088SXielmOUm1uczY8Dx8M43afnCOS1shfpEn/Ots+15ndwafm6Gz+Out/XbqN0Oo7QZAAAAcAiMOYIohp0dPZEkndSpdGea2daDTS2mT+rkwlFJT7QTSoKztXpHTvtGUZK2tb3p6M7YuXIW9WT9ru6Ey97e1NqdaI6JHW3c7Z2Ctb29KefOXW10VWKnU9/IDd1MOnlG5ydy0z1vEvSde47W+vad6La+7S2t3roTCs5I25trutOVtGuK/WxnQ3fveHXu2Nbm2r2evj6t82Li5/zOhpdf69Yt3QoCE5tOV4Lq3lxpcfcteDHOcUsiSZuN0M9imVa5SW1r816kT/Q93zyb9271OTcHHDcAAAAAfaX+5E/+5P+IPhm2uNhvCthRnVpa0tLSonbWH2jRuKTfObekpfQntOU+0vHg36eOSr98rPfdR/qV9JL+zdEdrT84onTmI7n3dnT8M/9Gxz7a0vqDj3T80xkd+xXv19y/+69PpLShC79zTp9ZWtLSUlqLO4/14NGmfrm4pFNHJR09paWlJS0tLWlxZ10PnqRlXPodnfOfW1paUubYr7Rr/MvH78t9tK2PPvpIi2lDX/idc/rMUlqLO64ePHmiI0G5knY2fiRn8yNpcVnGFz6vc58J1eHJth79ctHbN0na+qlX365tl5Re3JH74IkW051yZ8+OttYf6MmvHtenM8fUaS2EJek70i/1+PEvdfw3DX3+3Gf8vjhoW6/9Hz15pCda1LLxBe9v0ovacR/oyZMjWlw6paOaZj/b0caPHG1+pNC++XX+xBP98ugp77yc5nkR95xPwr/ufBR9PizU7xPtW5LjlkSSNovbzxJeJ2OXm1jwmbHU/tx4spgOtWmHd759pI+6+mT/OnTOzci2n3isB4+29dGvpdv7F5Tbc67sbGn9wRP96vFPe9smbjMAAADgcBhvBNHOjp5oUZ0URNvaDv876uQppbc3tbXxQJuL6b7TFbzE1WkZXaNcFnTy7JLSfRJdJ5Y2QiNoFnTylDeF7kl7CFOQ0DYt4/yZUB0XdPLsOS0vKpRLaUcb6359u7bVREboBMurRx93Z/Rn8ST1nYVtE9u173jPnzl7NpLrprNtf2kZl853/mbBG23XMcV+trMlr7uH901enc+Ep+hM77yYyjm/cEbn28moDS/XVtroSlB9qT2tMsm+he123JJI1maj9bM4plXuCGKdb57F5Qvd257x+s725tZoI9AAAACAOTRSgKh9E35nTdva1tod/0bc2ZTa/+43vP+kTqW3tbbmTS/r3IJsa/uJpGAVNG3K6bnJ96eJPNkZ6wt/+lRvzotuQULbfkswL2jhqLdN1z3K4mLy0QI4cHbvO76dLa3ejQSqhuU06dPXTp69pEtdebmm1M+eeFOJdt+3aZ0X0z/ndzfCvqn/9n2PWxKx2syXtJ/FNa1yE9q9T3YcXYiG0Y6q7+BXAAAAAAONFCBKJDKqyPsVeFHpfsOHDpzBq7ZNQrAcdPQxq8lRk9R3FradCj+fz+ZEO8b0+tmOF52ZsOnV9/BK2GZT6WdTLBcAAADAzBspQBTchF9YXvSnWXg34UZa0uKyLly6pEuXzveu7iRJJ88Ofi34tb5dRp/HwNW2+vzCP46+U0qC0Q5H5f1g7f9Kvb3tJ+Lu8KbNYN5sra9pW9ListHdh41xpuhMr58teMNj+k7b6Wvi58U45/yExdq3aUnSZuP0s+HXydHLnTHB1MmjC7v2na0H0RaPGt5mAAAAwGExUoAo8KTrV+bgRmo8RxcXpe013Vvdiv2l/Kh3Z6XNrUnkmwjyiGzKWQ2X5y2BvdY1FSWYfrKp9WA+3c6WNu7e0j7MyMAMObpwtH1jurO1odX1cTrEFPvZyVNerpa1O7q7EenvG6uhaaLTOy9GOecnK8m+TUuyNgsk6WdJrpNJyp0NoT3a2dLqPS/QFZ6mFgRDNx8Eq9ftaGv1rpyu1fu6JWkzAAAA4KA7cv/+/Y+jT4al04N/Od5avSXnybIunD+jBX+Z6LWjhi6d7Xwp39m4qztr0vKFAaOGdjZ019vAnwbklzPgO3vauKRQ8Z6t1b45MhbbZQb12O79e/9vw9tKW1oN8p9ELaZlnA/lGPHrH63uYjotbW7qaPT99tuAtmpbDI4nAkn6TrDtIN1l+P0s3X3O9DXNfjawTyxGzttpnRcjnPOJxGnnBPsWq7wRJGizZP3MN+A4j95/Exjw3oF+deh5r6TnW8/xGXCMFxel7e3IZ4BvQL37bgsAAAAccGOMIIqOGEqYQ2OgBZ05f0FGelGxc4yePKsLRnqCSUlP6uwFQ8vpcIGLWkwbutB1oyhvtSRjufPei4tKGxd0fmlilcEBsnDmvC4sp0N91+83xnL8/tzPNPvZybO6YCwr3XUCLSq9fC4S1J3WeTHCOT9xCfZtWhK02Uj9LMZ1cqRyZ83iotLLhi70RLJO6uyFZXUOsb/deW/Fs75itBkAAABwWIw1gggAgP0ycLQRAAAAgMTGGEEEAAAAAACAw4AAEQAAAAAAwJwjQAQAAAAAADDnyEEEAAAAAAAw5xhBBAAAAAAAMOcIEAEAAAAAAMw5AkQAAAAAAABzjgARMJK6zJypevTpA+kw7QsAAAAAYBQTDxBtmM/rldTzesV8J/rSCB5qo/qaaim/TP/x5pzdydarf6NU6lXlzFW50Rd7/Fz1qq1c6lWlQg+zT5slK3c0ddOvg/mz6EvxuKs9+5JK2fsczHBVzRVkOVLshqubSqVSfY/DvnMlOZYKKYJEAAAAADCvJh4gmqQN8wWtlBt6FH1hVO7PVDX/pivgkMvZqtZ/Ht1yhvxMt8uPJUmO9a7sXQISdfOvVSi/Kyf6Qo9k5R5Wbn1VZu5vEgWw6mZWZcdQpVlTPhN9dbrcak65SQdyMnnVmhUZslSYyQgWAAAAAGDaZjdA5L6lH1re/x6vvKivt97Qy/7jK/noxjG4q8pl/1Zl63FX8MRx3lW54Ez2hnuiPq2LlWOSJKP4jArDAhLuqq77bWZU/oOarRfU8h+1njZLUO5+ypxVw9+Hpl/fyfm57Ov/IMvxAmWx1E0VLMmo3FRpH9rsvXUnRvBvBJmSblYMySrM5ignAAAAAMBUzW6A6L1Nf+TQU1ouPKvxQgM/V/XKP/g31s+o0uwETlrN/6BKcbzSpy1f+n21Wi+oUTuroTGJ94Lg1zFdLnx6+LZJyoXPVfW6JRkV3dyP6NCUZUrXVJRkXa/GnjkHAAAAADgcxgwQPdSG+VJXjqAVfwRLr958QjXzLW3syZ3oz7UeDLsoPtM98iPzaZVqZxUeYBPkzclVfy63Hs7n8zcyq/2mo/Xm/cmZq6oP2jf3Z960plC5OfNn3TfldTuSd2dCuXcSl5tk336uemQKX2Fgf5iW3jqkcrbqbue4uX7upVTqr1UO+oX1t11tkut3nOs3VHYk43Jhl4Caq3rVVC6XUirlPwY1hFtX1cwpF2yXSimXM7vb189flEql/Pa0VAhtn0qllKtGDkiccnvkdbViSE5ZNwZ3CElS3cwplcox2ggAAAAADokxAkTv6M3UC1qxPoiRI+ihGrnefEKPrO9qJfuaNoIn3Lc6AaRCw3/yA72dDSWpzr2lBBOCfL+uJcP/X+tvlatGgjEDOOW/VrYQzufzWFb5ryPBg5+rmuvN++NY/6BCtk/gpW4rlf3byLSmx3Ksv931pryvcBLnwrv+k49VzoYDJKMmoU6ybz+TmfprFSJT+PbWgDo476qQHX8aYf22JcnQ5aHz8VzVzawKZUvOrg3hqnqloLLVPW3McSwVsuPkGRq93EzhsgxJ1u1hW9V123IkOYw2AgAAAIBDYuQA0Yb5ba1J3hQw+9V2fqDLxeiW0uPqX+htx9v2uWDb5otaliQ1tDKRFc+G+XWVrj3T/pdT/ltl/QTV4ZElfRn/TnbzBbVaf6CKH2Ryyp1gg1v9v/xRKMdUsf+gPW3Na4Z3VehKfvwzmUEQx3jGL9cru2k/o6XQlsoX2tPgJpp7J0G5Sfatbv6tvDEyx1QMtm29ILtPf5ia+ruhOnSmETab/0FFo7OvGX9qXfiYqvgfOtMOWy+oUfr19vYeV801Scbl4fma6je8UT5GRXazpVbLezQHNcRyURW72d6u1Wr6bWapHaPJ19qve68VZbe39x6N6JS3OOX2kynosiFprTkk8JPXxaIhyVDx2m6jqQAAAAAAB8GIAaJ3tN5OIP0f9ZX8iegGIQ+1sfKB5G+bC7bNPKvPV57y/n/toTcqKPNlmUEyajvn//1Teq7ZSVD9cuPLo+UjyhfUtJ9REA+Qn6C6kP3rwcu8G8/Ibpz1V6oKB5n+u5quvCTHK95IIKPy71XK+0GFzKd1NQi+rP33dtlu9R/bAYzKzUJoBaxfVyZfUKknkXQMoSTOLTuo37HuPEuNUXIMJdm3n+l2Ozn2v1ct2HbfPJZ1vTMNLpP5tGqN7mmEyb3nTVNczg5pSz9HkYqyG6WuFc76/01GpVpNpa6l0DLKXxwQTIptnHIzyi5Lctb1XvSlkHytoVarodpeL+MGAAAAAJiK0QJE7sP2VLHj2WHBIUna0iN/nsuj8gudqWKp5/Wdshc4krM5wrSx5DL5ghp9RpQ41j8o23eZ82M6Hf7n6WN+gOmx1t9TV24jp/zXXTlssv4S8nIet2+031v3nzNmeNWwtgT75v53fzSZtJzdx+BQ3uiMCHL+QQV/mt3gnElTYix195th3LrMXK4rn9DAfEVJTKtcAAAAAMChNFqA6IDzRpT8fmi6lCTr3aG5WXAQ/LpKjT9Q0/53KoaGink5k/5mDxIq+6OM4nKrymULsnZPVpTMtMoFAAAAABxaEw4QPdTjYChJ20kd92/Wj1c6uYq6H9/Qmeif7YXMpxVr1o3PtYNkzce0dFpdya+NSifvTvej0J7adHrJH7XkvCt7L0e0jCTZvvX3cy9vz576dWXyZ1VreDmGmpVg2t1jWbf7jRKL67TXHkNz8/jb9Jme5SW4jjx3oyxHklGx1QznFBqUr6htzZ/i2N/o5SqUaynBKCgAAAAAwIE3WoAo86yW/eDB2vVgVTFvpTIvGXXYCZ257OUaelT+C71ZfxjdYA/8TGbOVrX+866be7e+quvBfXvxmaHBDre+qivB1Kr2FLFfV+GyF/Rxyv+XzPrwhNeZQpAD6bHKV+zQtKefy63bMvstrb5vEuxb5rSX2FiSdT3I5+StgNZeRn4PuFVbOfNnctvt+uvKFIJpgf38updvR/4IsiFBl05unpUhwT1/G1m6Hiw779ZVzQXL0/e3nD3dzlHk1qsy252y12kvAqUVuz4kUOVJUm6ba2tl11xLLHMPAAAAAIfNkfv3738cfTIsnU5Hn5IkPa6+1MkhFHLceEqPnA+k4ot6ufas/+w7ejP3ba0NCBYcr7wqsxTJZVR/zV/q/ik91/yWcsPuVnf1M5mpYJWtfo6p0vx9BQtB1c1Xh9zQd2/rBZ/+VtaAfTMqf9C1IpZb/ZtODp+I8LbDtpMkGf9OzWjy6brtL3UfrWNHsnLj79ugcg3jmBznsbdKWO3T0Zd3NajctlB9h287oE3abdYtetwkSXVTqYIlo9LsXTUs4FaVy3ojeMKMYlGyLC3bLdX8SKRbzSk7JIJWDG3b5tchKlynkcr1BX87bBupLjNV8M4no6JmozQ0mAQAAAAAmH2jjSCSdKz0LX29ktPx9jPecvfmtX4BpWf1lcarulx8KrT9Xvq0rvqJqbtGkxjHVKz8BzVbfQIHPY7JKPbb9tOqNf5AdnHYSJWOTOn3/Rw54bXYvLJvRgMS+y7+vmVKv69mJbxKnLfcfePa/6tru2nKlP697MozMroqe0xG8d/J7hcckr+6Xc/fDJC/qoohOeUbg/NVZUpq2JVOeYahot1U4+pSZEMpU2qoWSmG2syQUbTVtCuD2ztfU9MuDq3vSOVKklzZK45kVHR1YHBILHMPAAAAAIfQyCOIDrP2CKJ+o3Qw3+KMIjqg4o0eAgAAAAAcRiOPIALmUr4muyg55SsK0gwdCm5VV8qOVLQJDgEAAADAHCJAhD30M5mpV5WK9bAHT+PaZ/maraIclbPmLomtDwi3LjNblmNU1CQ6BAAAAABziQARkFhetZatoiEdivmHGUlGUTbJpgEAAABgbpGDCAAAAAAAYM4xgggAAAAAAGDOESACAAAAAACYcwSIAAAAAAAA5hwBIgAAAAAAgDlHgAhD1GWmUkqFH+asLj6/d9y6qVzOb49cVYdhpfv95arabs+czDotCgAAAAB7jQAR9o1bzSmXMnWgQk51U9mCJceJvhDm6sPvmfrhl1L6vv/44Y26fhHdLKkHdTVv5Nplfv9LOf3ke5MNpvzie53yf3Iv+moSdf0ktP9djz+uDm4Lx5FVyIo4JAAAAADsLQJEGCKvWqulVqulVstWMfrymN5bdzQ0zjKD6rctSVKx0vTapVFSJrLNhzey+vHrlnZCz+28XdDfDwuM7OZBVT8sFvTu2+EWc/Tw9ay+f2NC0ZQHVf349f04IhmVGl4/a1a8XmbdntA+AQAAAABiIUAEJGVUdLUUDQv57pn68duSni7qc1ZLv/uDln7XsnXiaUnvl/XjUUf8nMpq4eminvlm0yvzBy198Zt+yO7t2/owun1irpp/XtaOinrma0b0xZEtfK1T3/bjL0v6ZHRDX6Z0VZXJvT0AAAAAIKY5ChB5+XRyVdfLeWLm2nl1cma/PDKu6lVTuXb+nZxyZr17O7eqXColsy7Vg/JyVbmh8nM9c2Vc1c1cqNyUcjlTXWlX/HIH5bepm159qt2V2b2+Uxetg9e2XftWN9uvFSxJslQIbZ9qH6OD6cP/25Jk6Jn/VNOnTvlPnsrrs/+pogVJOz+0RxxFlNdn/7Km7LlOYOqT52r63HOStKadB+Ftk/vF967o3felE9+s6UT0RQAAAADAoTdHASLfui0zlVXZ6kylcayyspFATt3MqlC2QlOgHDlWQdk+QZu16zkVgvKcFd0wr7TLd6zroUCOq2ouq4LVPbXKcSwVsqGAT6agy4ZXlh19M9V125JkXFYhNIglSX2npbcOXtsWJjUFaubV9fBtSU9f1okgOCQ/d9B3V7wpZ++vd009mwn+1LKFrzX12XPRFwEAAAAA82DuAkSOVZYlQxXbzyHT9HPrWLc7yZLrpje6pWir2c7B05RdNCSnrGi8w3EcGZWmWnZRkiPLclS0W2pWDEmO1t/ztnOrV1R2vClKdjNSrhyV2wVnVLrmlbUSjRDVb8uSVLwWyn2TsL7T4QeuipVQHVpq2hUVl0Kb5Wvt1+yiJBVlh7ZvtVpqDJq+tQtvZNWQx7jBMrfq7eMgD5pe8OdfZ/0pVK4+vJHT97tyB40/2qdjQEAqEX9q2dMVfe73Rmv3YXZez4aSU+f0k+/FTNZtXVeV1cwAAAAAYM/MXYDIC0g0VMr7N8OZvC5Gsi97iYiLsmv5UALijPK1ayr2S6BrVHQzHNQwKrqalzLZ5dBGruwVxyu3UVLw9l65N728K+EgVf6iipKcFbsrqBHU7WK+97nY9Z0ma0V26MY+ky+pVgpV9gByq/70wWxZllFU5WZvYuqwBclfxSyrH7/tSDJ04mu2PjfB3D6S9OGNgh7K0DP/aXBOn914U8vGKyO29x09fH23ZN0ZlW5WVDQclQvZAz/lEAAAAAAOivkLEBUvKhquyNdaarVq/vOummvqmxsnlSrIkqS1ZlfQxrhc6AoYRP/teU/rTv/3lzLyYklrarYL9gNXXdPMglE64TKS13c68qrZRRkKbuxzMquR/ENT5h3HIY8+K45Nw87bhfYqZgvP2friDxr67O/lpfuTWyHswxs5/fht6cQ3G8qOOnqoPbXs5uhlDJTXZyPJqb9oVbz8Rrsm685GnwAAAAAATNn8BYgOkPzViozwNLP6bW963NXeENNMyNfUaDW9aWWGI6tcViHbL1H3wZIpNdrT5QzHCk0FjDiV1YL/vwvPVfQ5q6UvXM23p5vt3JekZS2MFYxx9eGNlH78tqMT3xwvZ9AvHC8vUtc0sC+l9Pf+UvcP/9T79w+HBnPi++Spkj4brLw2RP1GQZZjqOJPwxx1yiEAAAAAID4CRD380TxGdy6diY1ECU8jawtGAS0rGy7YT1YdTDOr37Z6klNPvb6JZbxpZY2WWq2mKkY0UXdUeNTUeKadgyiTL+lacdiIrNNaeFrelLKvljqrmEnSA1sP35f09FI7iJScq+YfZ/2RQy19NrSi2UHxi8216FMR/rlQvCbiQgAAAACwdwgQ9XF6yUvufMWsy+0fCRhBkOvIUqFr+XlXddNPXt0z/Syjghchku1608v6TV+bTn0TcqsyzarqXRXw6x9K1B12esl7bcUOt8dBltGJL3j79O6fm/owSEb9oK6f/HlZO5JO/G/9c/3UTS/P0eDRVl5w6N33DT84FH29v2HlfvL3Gl1TwNpTwfxcSSe+6f37C32SVw8rtz9Xv7hn6sev+zmZjN4yAQAAAAD7hwBRH5mSlzTasQrKZntHosS+J47I14IV0wrKtsvzlr2X4SWZjsqUrqkoR+s3bstSUdf6DKuYVn1VN0Pl+PmMrEL7uWjy4DWrrELWSywcPLJe5KsrqXYgSOLtlMPt0VtuXLOQg+iTv3dTzzwt6X1LPy7607aKBW/00HP2gMBOXbctb1rXoNFWXjJpSXLaU7+6Hn0TP+9e7mhilHvPjNQxq7//U0s7MsbLmwQAAAAAmAoCRH1lVGp4y8RPdt2pvGpNW5ViuFRDRtFWsxEkyY7yRh5ZltVnhFFgWvVNIFPSTbsoo6sC/r61E4BH5Gtq9vzNQZdR9i+b+txz3cf4xNdsfXFg7igvwffkzVK5hp+XqTEgSAYAAAAA2E9H7t+//3H0ybB0Oh19CphbdTOlglWUPSjoNSK3bupKwZKjyZZ90MqV6jJTBVlFW60+I+oAAAAAANPBCCIgMUvXq5PJmxQk1s4WLDmSivZkgi0HrVyPq3r1ujeVEQAAAACwpwgQzY26zEhuosEPs89Ka5Ck/NWKjHDepDFXRgsYRlF2s6VJD5o5GOW6quZSXj6uspfEujJwOh4AAAAAYBoIEAFJZEq6aVcmljcpSKzdaNSUn2AG7YNWbpthqGLfZIl7AAAAANhj5CACAAAAAACYc4wgAgAAAAAAmHMEiAAAAAAAAOYcASIAAAAAAIA5R4BojrnVnFKplHIma5YBAAAAADDPCBD1EQRO9jVu4laVS6WUq05iEfV+XNkrjiTJsW7P7bL2wbHuPHKaWpMDAAAAADCjCBAdEnUzpVTKTBDoyahw2Vur3SheVD768ojcak65RPUAAAAAAAD7jQDRHMuUGmq1WmrUJhUekt5bd+SNSzpIirJbLbVaLbVaDZUy0dcBAAAAADjcCBABAAAAAADMufkLELl1Vc1w3pmczCFJZ9yqqVywbc4ckJ/GVT28XSqnnFlX302VvA5h3lSylFLDyh+qLrMr545X1mDRfUspZ1ZVD7953Wy/VrAkyVIh8h7Ty6UEAAAAAADGNV8BIreqXLagshWeBOXIKl/pE/gxtHY9p2zZ6kyZciyVs735depmVoXwdnLkWAVlc9XeIE6iOnRzqzkvAFO01arltRczoXr3TXKssgo3oq0AAAAAAAAOqjkKELmqXinLkWQUbTXbOWeasivL0Y29II/jhLZtyi5KkqXb4dhI3WwHbbrKLBqSU1Z3HCVpHTrcak7Zslef1lg5g/Kqtd/XVjH6cpe6bluSipVQXVtq2hUVl0Kb5Wvt17w2Cuf08R6NERP7tEdMDXr0C8IBAAAAAIBE5idA5NpacbxATqNr9E1G+VKtf2Lirm0zyl/0wilrzU5Iou5FUGRHy6xdU1GSFY4mjVKHSHBokgmlY7NWZIfmlGXyJdVK+1APAAAAAAAwFfMTIHpvXY6k4sX4gY3dt3XVXFPfnDupVEGWJK01OyNcRqiDVq4oW3baQaW9lVfNLsqQo3Ih6+dKiuQfmrJ8rXskUs+jUdqTqXYAAAAAABxmcxMgcr1Izr4aqQ6Xr6liSLKua2gu6WnJ19RoNb1pZYYjq1xWIZtSbl8qAwAAAAAApmFuAkSZrJfjJzw9bHwZZZclGd05egaNcBmtDqdVathecKaQ2zWR9XRkvGlljZZaraYqhuRY14fUZU2JdnEIchABAAAAADB9cxMgUv6iipKccla5aniJeG8Z98HBjuFOL3nJqK+Ydbm7lTFyHfKqNWwV5aic3cMgkVuVaVZV79qxjAqXDUmO1t8LPe07veS9tmKH9w8AAAAAAMyy+QkQ+fl0JMkpF5Rtj0LJqlAeYeqXL1O66Y+oKSib7R3h0j0Ta5w65FVrVrx8QFlT/Sd49cuFlFIqXIm6GXrNz5NkFdrP5SLRpzWrrEI221VetuxIKqpfKqVglFT3/vWWGxc5iAAAAAAAmL45ChB5+XS8XDpG6ElDxcrNgSuI7S6jUsNb1j5c6kDj1CFTUsMueoGg3KAg0QRlSrppF9VVVRkyiraarZr6xIf8/Yv+DQAAAAAAmGVH7t+//3H0ybB0Oh19Cjg03GpO2fKy7EEBLwAAAAAA5sB8jSACAAAAAABADwJEQFfupj1MAg4AAAAAwIwgQAQAAAAAADDnyEEEAAAAAAAw5xhBBAAAAAAAMOcIEAEAAAAAAMw5AkQAAAAAAABzjgARMCVuNadUKqWcWY++BAC+usycqcNxlThM+wIAADB/CBDNnbrM9pLu/uPABDAeaqP6mmqp5/VK6PHmTFbflb3iSJIc6/b0bpjqplKplA7MIRzbwe2/G9WX9ErqedXMt/Q4+iLmlKtqriDLkeRGXxtgls95V5JjqZAiSAQAAHAQESDCgbFhvqCVckOPoi/MpIwKlw1JklG8qHz0ZcyZd7Re/kCS9Mj6R23EDQZgXz2uvqRa6jVtRF+YkLqZVdkxVGnWlM9EX50ut5pTbtKBnExetWZFhiwVZjKCBQAAgGEIEM2dvGqtllqtllotW8Xoy7PKfUs/tLz/PV55UV9vvaGX/cdXZjT6kik11Gq11KjNaAUPpAPaf/WslipPSZKOF39bZ/Y4GIDRPF7/YHoB6bqpgiUZlZsq7UN/eG/dkTfGccIyJd2sGJJVmM1RTgAAABiIABEOhvc2/Ru1p7RceFbHoq8DM+5M6Vt6ufWGzNqX6b9zz1X1uiUZFd3cj+jQlGVK11SUZF2vxp45BwAAgP1HgGgWuVXlUimlcv2/XNfNlFKpnKrhF926qmbO+zv/kcuZqvcrIKYgyXLPr8B+DoxcVwUkyVW9aobqkFPOrPfdh6lx31HDfKkrT1Et91rvlJ76a97rubf0WA+1YXr5YcbPERM/R47XvjlV3Ui75czuY9vmb5cLlV3wh1X1iHMsXFX9snqquEsfHGqXv52r/hv0s65H/ylLG6bf/6oP9bgezrX1kt6sPoxunlA0f9dLqpnv9PTzx9WX9ErqJTXcyPa519SINIS3bZ8cYP4+14I6u2+p5m/XPs/8867h/7tmvhMpJF59pXf0Zvu9OuUNPI/jXB9Cx2zFkqSGVrqOX2jf2uLW11e/obIjGZcLGh4eSnDOxzmH/L6fSqXkFWOpENq+73kRp9weeV2tGJJT1o1o/wAAAMDMIkA0izIFXTYkOSuye76E13XbkmRcVqF9Z+GqeqWgstU9ZcBxLBWyE84xMUTdzKpQtkJ1cORYBWUHBAp25d9YvpJ6Xq8UGv6TH+jtbOhmLRe6CXTfUi37bb1tdU8LeeQ0tJJ9qfdGVpKcTf3IfEErlpcfRpIeWd/Vd3puWKfF0cqVSLs5lso9x83ttG+MeSHxjkVGpYY3TcsqhN/PVfVKWY4MVW6WdrmB7YP+O5ZH5Rf0nUI419YHWiu/0L//xtSbv+sDPbK+re+Ez5/Qa2tXIts7Db2d7R/YiuvR9Zc655nzj/qR+Rd62//3I+tWVwAqWX0lrb+jN1MvtMtT3/P4oRpXBl0fxtu3pPWteyeBLndOgj6SnPPTOodGLzdTuCxDknV72FYAAACYJQSIZlJGpWtFL3gQvcOu35YlqXgtcuO+XFTFbvq5WVpqtZqyi5JkaU++n/v5NFS01eyqw179ivxQjSvf9W/Qcrrc9HMUNV/UsuTd9F7vd7PW0JolLduv6uXWG/q6nydG1uqIN4zJc+Q4jmS0223Acavf8NrXqMhuBuW31PQ27pboWORVs4veSAJ/qI1bvaKyIxXtxoi5Uei/bflvtHNltftWHMZX/T4c9F9p7faIQcv6a95ImGI4d9erulx8SnK+qx/12bdHjnS8vf2rulyUpIbW+2wb1yPnAx2vvKqX7Zx3PlofaNkO2uUDPXrP33CU+lrf1Zqe0nP+edw+76Pn8XKus82gfQsdM++1nC6Hcp693HpDZulEp8zE9XXVXIsGSftIcs4r5jmUr7Vf914rym5v7z0a0ZM+Trn9BIHiteaeBlgBAAAwOgJEsyp/UUVJzord9eXa++W5qItdeY8zKtVqKnUtg5NR/uKAG4kpCOpl1/KhG/+M8jU/F8XQO4kBMl+WGdxw2Tn/yaf0XBD8ab2hlxt+Phf3Ha35P3Efr3ylkwQ486y+Evyt03/1qOOVV/WVvHfDdyyb9p/d1OM+205F0Vaj3W6d47bWDCrg5ytRUXaj1LXaUb/7y8THIl/zbvisgsxqVVe86JDGyq1N/x1DTpcbX/b78LNaGrMZNm43vDJr4dxdJ3SmdknLgwJPxRdltrc/oTMXvXPoUTM6tSoB46u6FA6sGF/V5/Phc84zUn2V0+XWt5Tzz2Nl+rXbCeVq3+hs4z8X7Nuoktf3Pa07kpazfc9fT7Jzfnrn0DjlZpRdluSsK4j9AQAAYLYRIJpZeV307rBD03T86Tn9lk136zJzXs6VXXNVTJz/i3iffBapVEGW9uBX5K4k1uEbQEmn0zoudY9SaIts3x498C3l+t+JTVyxO1oymLGk09Hneox2LPK1piqGZJXLcvxAyXjovyMz0hNMYv1Qj9fUN4/OK6lva02S1h72jKxbvvhs5JnxHb/cnVw++m/PaPVV8azORJ46U3tDL7e+0f28+47ezHXyFHVPXx3FiPWNK9Y575vWOTStcgEAADBzCBDNsPzViozwNJ36bVkyVLkaub12q8plC7J2T1SBA8kfcTBVk38P+i9mip+jbM3p5CmaXQnPx2mdQ9MqFwAAADOJANEs83M4BNN06retvnkr6jfKciQZlXD+lJZag3JVjKl+ey3yjD+VwKh0v3/40Rgh2XESQ0YJPbb/sT266Hjsn+NnyWktGf2nanhTo8JGOxZ1s+AFb+yKDFkqTCIxM/13BpzQsWVvOlcnP07kEUzTnJCN25vRpxKYXn03bng5yo5XwrmCwtNXBxk23XSU+vrn89BRaUnO+XHOoTW1Z7L2MXq56ozMSzIKCgAAAPuKANFMy6jg3WHLdr3pOcOWRV7Onm6/5tarMq/33kgkkcl66XGt20GwwFXdzKlg9f6afHrJS+Z7xazLHXLDMTWZZ7VseP+7VggtW+2+ox+V/REDxm93chMdKH4AQ5auB0tQu3VVc8FS1d2SHgu3mlPBkozKTZXyJd30l6e+El3uOqRuelNOcj1ryIfRf2fBsSUvWfIt850hgY7kgtxBa7eD5O8PtWGGViob0bTqGziePdkO2Dyuv6U3rw+eYnZsyUugvWYPXrI+eX2D3Dz9VvkLJDvnA0nOodNeBEordn1IoMqTpNw219bKrrmWAAAAMEsIEM24TOmainK0fuO2LBV1LbrCTPuLvmQVsu0cEdlCWX3ug6W62ZtfxSq0n8uFgwJ+omFZZWVTKaVSWe/m2vAjMSGZ0k1VDHnLgmejeVxSGhpHmIgTyl3L+aOIGlrJ+nlAsn4eED2l525Gf8mfgiTtm4A3XUtyyv4xzhZUdiSjWFT0aCQ6Fq6flNqo6Kbft9p/X84OOG513fY7l2Nd17Bdmvf++7jayXfznSBQGc5XM2AZ9Ek6VvqPes6Qt+x6cF6EHm+OuG/Kn/VXCvuuvpN6Xq+kXvCCQ0aC1dr6mFZ9vWCPtFZ4oXNMCt9tJ7fvJwiCPSp/299H71GrdpJ1j1JfL8lzn1X+QpKc84nOIV8QQHXKBf/86D2HRik34NorcpLkWAMAAMC+I0A087xkv5Zl9U/uKylTaqhZCd80GN6y6bZ3gzG6vGrNiortQgwVK7aaDW9lp24ZlRresuDjvecY8t+Q2XxRy103qE/pePGrutzcu6TTU5EpqWFXOrENw1DRbqpxdSmyoRIci7rMbFmODFVuhqdQZVS66fUdq2Cq9/42r1qsKSai/86EE8o1vGXXvQDqpDyrrzS/2h65Jz2l5cqL+nrDW71rdNOp77HSt/T1ShBEln9teFFft786+H3y39DX7ZyOD+0UI9Q3f9UPwt7oc375EpzzI51D+ZqadrFfvLRtpHIlSa7sFS/wHE05BgAAgNl15P79+x9HnwxLp7uXIAYAt27qSsHyVjxr1foGfgAMUTeVKlgyKk01+oysO8jcak7ZsqOi3dLYCyICAABgzzCCCEBsdTOYZmJ500dsgkPASPI12UXJKV8ZOk3zwAmmrRZtgkMAAAAHDAEiAIkZRlF2k9EBwDjyNVtFOSpnTdUPQ5DI9aetGhU1uTgAAAAcOASIAMSWr3nLXDcaNeUP16wYYB/kVWvZXp6sw3A+ZSQZRdmNcE4zAAAAHBTkIAIAAAAAAJhzjCACAAAAAACYcwSIAAAAAAAA5hwBIgAAAAAAgDlHgAixuNWcUqmUcmY9+hIAAAAAADjgCBAdABvVl/RK6nnVzLf0OPpij4faqL6mWup5vRJ6vDlWXMeVveJIkhzrtsYqapi6qVQqJWJQk5Os72B/1WWmUkqFH5wMAAAAAPYIAaKZ947Wyx9Ikh5Z/6gNN/p6tw3zBa2UG3oUfWEsGRUuG5Iko3hR+ejLGMvj+lt6M/eSXjHfib40pmR9B4ebW80plzKnF+AFAAAAcKARIJp5z2qp8pQk6Xjxt3UmE309xH1LP7S8/z1eeVFfb72hl/3HV8aM6mRKDbVaLTVqYxaEiIfauP5drTleIGeyEvQdzIC8aq2WWq2WWi1bxejLY3pv3ZE3DhAAAAAAehEgOgDOlL6ll1tvyKx9WceiL4a9t+mPHHpKy4Vnh2+LuRC77wAAAAAA5hoBollVf60rh5D3eE0b0e2mKn5OFC+JdU5V11W9aioXbJ8zVe07tcnfLhcqu+APf+oRKTOVU86sq7tYV1W/rJ4qulXvb3PVyN/Es2F67V+rPtTjeji/00t6s/owurnkvqOG+VJXHqha7rWuKV6P/dxAr6Re0NvBsA7r213Hu9av7DgS9J3E+xab13dyVdc7NqaX5NxLdN7vOMQ4xv5xNOtSPSgvV5UbKr83ibqrupkLlZtSLmeqHi54l/5RN736dPfjGPWdumgdvLbt2jc/r1cqlZJ3elkqhLZPtY8RAAAAgHlHgOigc9/q3NQXGv6TH+jtbCg4kNurBMWOVq5kVShbnaksjqVyNpr3xFXd9LeLMeelvW37GUeOVVC264Y+o1LDm5ZjFcLv56p6pSxHhio3SxpnltWj8gv6TiGc3+kDrZVf6E4A7r6lWvbbetv6oCsP1COnoZXsS2MmC5+eWPs2inVbZiqrshU6elZZ2UggJ94x9qxdz6kQlOes6IZ5pV2+Y10PBXJcVXNZFazuqVWOY6mQDQV8MgVdNryy7Oibqa7bliTjsgqhzpOkvtPSWwevbQs3xj1oAAAAAOYRAaJZlf9GO3/Q1/08MnsveU4Ux5GMoq1mq6VWqym7KEmWbofvWes3vNEMRkV2Myi/paa3cbe66W3bLjMo15CcsrrvhfOq2UVvlIQfgHCrV1R2pKLdUGmc6FDA+KouN9/Qy60Xtew/tXY7SC79UI0r3/WDLDl/uzf0cjPY9gOtXfeCdcf8qV8vt17Vc17+b6n4YvuYv9x6Q2bphP9CQqP2naH7NhrHKsuSoYrd9I5d0+9H4dXwEh1jyXEcGZWmWnZRkiPLclS0W2pWDEmO1t/ztguOfXc/88uVo3K74IxK17yyVqIRovptWZKK10LBxYT1nQ4/cFWshOrQUtOuqLgU2ixfa7/mnV5F2aHtW62WGhM5MQAAAAAcdASIDrrMl2UGQQU75z/5lJ4LghOtN/RyYw/zzxRtNWp5/2Y6o/xFL+iz1gxuvF1Vr1vejWqjpHzo3rTfbWrduwuW3S5TXrm1a95ooa7Ik3dD7MWICjKrVV3xokOaTG7tnC43vuwne35WS9F4lvuO1vzhHMcrX+kkhc48q68Ex8aZ1dXEdtm3kRVltxoqBQc6k5ffJdoSH2OjopvhoIZR0dW8lMkGYS1JcmWvOH36WUb52k1VjEiQKn9RRUnOit01Aiio28VQ/0lc32myVmSH5pRl8iXVShPp7AAAAADmDAEiTFQxfCc9jLGk09Hnerhqrqlv3pRUqiBLktaaPVN68rWmKoZklcty/Bv5iTDSwwNtXUnCI6N/Tqd1XJL0gR75I1xmym77NqriRUVbP19rqdWq+c8nP8bG5UJXMDH6b897Wnf6v7+UkRdLWlM7bik/cNU1zSwYpRMuI3l9p8MbLWfIUbmQVSqVk1mN5B8CAAAAgAQIEGGP+TfuU7UX74HDJn+1IiM8zax+25sed7U3xDQT8jU1Wk1vWpnhyCqXVcj2S9QNAAAAALsjQIQ9dlpLhiRnXdGBNN7UnTB/pIfRnWel69HoTTxdNwt+3puKDFkq7FXi4CGjhB7b/9geXXR896FTc2S0YxxbeBpZWzAKaFnZcMF+supgmln9ttWTnHrq9U0s400ra7TUankj57oTdUeFR00BAAAAQAcBIuyxYHqPpevBXaxbVzUXLMPd7fSSl/j3ilmXG+PG1q3mVLAko3JTpXxJNyv+3w++Y56czLNa9hNOrxVCy9q77+hH5Q+8/zd+u5ObSJJ0QseC1DnW6ozmJ5qupMc4niDXkZewvFOsq7rpJ6/umX6WUcGLEMl2vell/aavTae+CblVmWZV9a4K+PUPJeoOO+1FZrVih9sDAAAAADwEiGbU4+pL7WXqvxMEF9TQyl4uXV83e/OrWIX2c7kRgy7eVB7JKWe9srIFlR3JKBYVLOgVyJS8hMKOVVA2G835klLXbBrXT0odSmLc/vtytnvbqTih3LWcP4qooZWsf6yy39aa5CUPv9mbMPzMxSC5eOhvUs+rVn0Y2TKemeg7CSQ6xgnka8GKaQVl2+V5y97L6J+bKlO6pqIcrd+4LUtFXeuzwte06pv0fFuzyipk/XPIf2S9yFdXUu1AkMTbKYfbo7dcAAAAAPOJABH2Xqakhl2REUSDDENFu6nG1fD63IGMSg1vCfFo8KhbXWa2LEeGKjfDU3wyKt30AlJWwewz3WjC8t+Q2XxRy0Z4efmndLz4VV1ufku53niDlP+Gvl7J6fjwHTzE4h7jpPKqNW1ViuFSDRlFW81GkCQ7yht5ZFlWnxFGgWnVN4FMSTftYucckjr71k4AHpGvqdnzNwAAAADgOXL//v2Po0+GpdPp6FMAAAAAAAA4RBhBBAAAAAAAMOcIEAHAxNVlRnITDX7swdRHAAAAANgFASIAAAAAAIA5Rw4iAAAAAACAOccIIgAAAAAAgDlHgAgAAAAAAGDOESACAAAAAACYcwSIAAAAAAAA5hwBolnmVpWLLoltsiA2AAAAAACYLAJEAAAAAAAAc44A0SzLlNRotdRqtdRq2SpGXwcAAAAAAJgAAkQAAAAAAABzjgARAAAAAADAnCNABAAAAAAAMOcIEAEAAAAAAMw5AkQAAAAAAABzjgARAAAAAADAnCNABAAAAAAAMOcIEAEAAAAAAMw5AkQAAAAAAABzjgARAAAAAADAnCNABAAAAAAAMOcIEAEAAAAAAMw5AkQAAAAAAABzjgDRLHOryqVSSqVSSqUKsqKvAwAAAAAATAABIgAAAAAAgDl35P79+x9HnwxLp9PRpwAAAAAAAHCIMIIIAAAAAABgzhEgAgAAAAAAmHMEiAAAAAAAAOYcASIgAbeaUyqVUs6sR18CAAAAAODAIkCEiQgCJ/saN3GryqVSylXd6CsT4specSRJjnVb+7mrAAAAAABMEgGiCXlcf0tv5l7SK+Y70Zcwo+pmSqmUmSDQk1HhsiFJMooXlY++PCK3mlMuUT0AAAAAAJgsAkQT8VAb17+rNeeD6As4ZDKlhlqtlhq1SYWHpPfWHXnjkgAAAAAA2B8EiAAAAAAAAObc/ASI6q/pldTzeiX3lh7roTbMl7x/p55XzXxLj6Pb66E2qq+p5m8TbLcRSm/zuBqU8YLeDoaAWN9ub/9K6nnVqg/b22+Y/vO57vdrPx+enpagvsHf16oP9bgervNLejP0/iNz66qaXo4h75GTOSTPj1s1lQu2zZnqv6mreni7VE45s66+myp5HcK8qWQppYaVP1RdZvt9O2UNFt23lHJmVfXwm9fN9msFS5IsFSLvMb1cSgAAAAAAdJufAFHA2dSPzBe0YnWmgz2yvqvvdOUOeqhG7gWtlBt6FHr2kfVdrWRf00bouamLVV//+fIL+k4hXOcPtFZ+QW8Oi2Xsxq0qly2obIUnQTmyylf6BH4MrV3PKVu2OlOmHEvlbG9+nbqZVSG8nRw5VkHZXLU3iJOoDt3cas4LwBRttWp5ZaIbTEHvvkmOVVbhRrQVAAAAAACYDfMXIFJDa5a0bL+ql1tv6OuVp7ynrdV24Odx9S/8EUFP6Tl/u5ebL2rZ//sVPzhzrPQt77XWq3rOy10sFV/0n/MeZumE/8Kodq9vF+Orutx8Qy+3gvpKa7d7g0nxuKpeKcuRZBRtNVsttVottVpN2ZWg9DBHjuOEtm3KLkqSpdvh2EjdbAdtusosGpJTVnccJWkdOtxqTtmyV5/WWDmD8qq139dWMfpyl7puW5KKlVBdW2raFRWXQpvla+3XvDYqyg5t32q11CjtRTgLAAAAAIC5DBBJxyuv6it5L3BzLJv2n93UY1fe1LIVb7TO8cp/VM7fTpln9fkgOLP2sM+UtOkZXt+wnC43vqwzGUl6VkvDIxm7c22tOF4gp9E1+iajfKmmvvGLrm0zyl/0KrHW7FS27kVQZEfLrF1TUZIVjiaNUodIcGiSCaVjs1Zkh+aUZfIl1Ur7UA8AAAAAAGKYwwDRU1ouhEb15L/hj/b5lnIZSdrSI39u0KPyC135hL5T9qd5OZt7GCDarb4hRlrHIk+N5b11OZKKF+MHNnbf1lVzTX1z7qRSBVmStNbsTDMboQ5auaJs2WkHlfZWXjW7KEOOyoWsnyspkn8IAAAAAIAZM4cBIsTlepGcfTVSHS5fU8WQZF3X0FzS05KvqdFqetPKDEdWuaxCNqXcvlQGAAAAAIDdESDqcVLH/XxCxyt+/qGexzd0JvpnI3tH61b0udmQyXo5fsLTw8aXUXZZktGdo6fr0Si1p5KNVofTKjVsLzhTyO2ayHo6Mt60soaXL6liSI51fUhd1pRoFwEAAAAAmCACRD1O6MxlL9fQo/Jf6M16nGXiT+hYkC/ZWtXGgBv9Y0t+DiPHzx/kvqNG7tsaYYzM3shfVFGSU84qVw0vEe8t4z442DHc6SUvGfUVsy53tzJGrkNetYatohyVs3sYJHKrMs2q6l07llHhsiHJ0fp7oad9p5e811bs8P4BAAAAALB3CBD1cax0ScuGvGXiC915iF5JPa9atTdodOZizv+/hlay/bc9VvhtHQ9vk/223nak44YfOJo5Xj4dSXLKBWXbuYKyKpRHD2tlSjf9ETUFZbPRPESpyLSwceqQV61Z8fIBZU31n+DVLxdSSqlwJepmb54kq9B+LheJPq1ZZRWy2a7ysmVHUlH9UikFo6S696+3XAAAAAAApoUAUV/P6iuNV3W5+JQf0Ikh/w19vZJrT0/rK/NlXbJzoTKf0nLlVZnXgpXJZlC+5ufSCe+YoWLl5sAVxHaXUanhLWs/rLnaxqlDpqSGXfQCQblBQaIJypR00y6qq6oyZBRtNVs19YkP+fsX/RsAAAAAAPbOkfv3738cfTIsnZ7h4AUAAAAAAADGxggiAAAAAACAOUeACAAAAAAAYM4RIAIAAAAAAJhzBIgAAAAAAADmHAEiAAAAAACAOUeACAAAAAAAYM4RIAIAAAAAAJhzBIgAAAAAAADmHAEiAAAAAACAOUeACAAAAAAAYM4RIAIAAAAAAJhzBIgAAAAAAADmHAEiAAAAAACAOUeACAAAAAAAYM4RIAIAAAAAAJhzBIgAAAAAAADmHAEiAAAAAACAOUeACAAAAAAAYM4RIAIAAAAAAJhzBIgAAAAAAADmHAEiAAAAAACAOUeACAAAAAAAYM4RIAIAAAAAAJhzBIgAAAAAAADmHAEiAAAAAACAOUeACAAAAAAAYM4RIAIAAAAAAJhzBIgAAAAAAADmHAEiAAAAAACAOUeACAAAAAAAYM4RIAIAAAAAAJhzkw8Q1U2lUimZ9egLmDa3mlMqlQo9cqq60a2mr/56Sqk/TCn1esJO8FNTqT9Myfxp9AXPyOXuYlrldtll36ZlWvs2rXK7xGgz96emcn/m18V/DNt+ZuzTvu3JcZtjSds37jFOWm5c0yo3iWnVYVrlKsFxS2Ka9cUUuFXlur5vpZTiiy8A4BCYfIBoQtxqTrmUqf39uHVVN3Pel4BcVfsQa5mKX9yr6id/nNL3v+Q//jinn3yvrl9ENxzR6U8Z0acm4qCVOwumtW/TKjcJ9wc5Zf+LJedB9JWDb1r7NvHj9qCu5o1c51rypZx+8r3+V8rpXHfq+kn7vSOPP64OLfsX3+vU+yf3oq+OJkn7JjnGScpNYlrlJjGtOkyr3CTHLYlp1Ve79vXRz6G4vHM/fJ0w9WH7VVfN8HWh32OcevjXqB92lWeqeS98nZpyHQAAOEBmNkD03rojJ/rkXnG9wFAqlVXB2sd6jKQou9VSq9VSq9VQKRN9va53/7Ssh++Hnnrf0cPXC/r7G5MNxxmfOh19aiIOWrmzYFr7Nq1yd+fK/rEjyVDlj5pq/VWr/aj9VnTbg2b6+zaR4/agqh8WC3r37fAV0tHD17P6fs+1ZO+uO7E8qOrHr0/vyr57+452jHcvdzTTKjeJadVhsuWOdtySmGx9p9/Xh/MCL3//p2U9fH8/6lDXT/xr1E746fctvfun2T7BsgQyJTXa37VsFaOvAwBwQM1sgGg/1W94gSHJUMWuHLoP/oXnKvqc1dLv/sB/WBUtSNLbt0O/6gGz7D2tP5B09ppKv9UTBT3gDsi+ncpq4eminvlms30t+eI3/atln2vJNK87C1/r1KH9+MuSPhndUPJuWv+8rB0V9czXpjdqY7gDcowRcdCOW/y+nuwciufDG1m9+35w7ofLr+lT7a0yyv5l5H2Dh389WfhCYaR6/OJ71/VQ0sLXbH0xVG5wnXr4fwfB6enVAQCAg2bMAJGretVULheag12woht53LqqwXQt/5HLmaqHR/n6+YtSqZS8YiwVInO8c9GkOnHKTSh/sSKjaKvZaqiUz0ZfPuDyyl4t6VOnQk+dKumZ50L/HlPmU8vRp/pwVf9BJI/DfxnQd3zxyk0uXrl+fUM5J3KvV1X/l+h2SrhvCcr9l7qqr+e6t/0zs/+2vnj7lly8chPsW6I2S8hvt3a5f5iT+YN+F4gE9U10LKa1b9H65pR7vT50Kmy84xZXXp/9y5qy5zo3yp88V9PnnpOkNe10TcGZ/nUnrl9874refV868c2aTkRfHNNk27dj/8qty/zDlHI/cCW5XedR7vV+0673u092xCs3Wt8h53wirupd15zwI6dqn/Lj1TeZafb1XT2o6t23JT1n6wtXS/rUqaQBNVfN/9OSVNQzv5f0b7stpPNdwZ1PnrsYsz0mVwcAAA6KI/fv3/84+mRYOp2OPuVzVTezfiCnV9FuqZYP/uWqmsuq3HeEcVF2q6a8/ADRoAJ9RqWpRnveVMxyx1KXmSrIMipqNkqa5a8IbjWnbHk58X7/4p6pH/+pJX2tqS/syZcgV/XXsyqsRp/3FP9ocsP1J6X+eqp/fc/aan0t3NrJ9i1JudU/y6rcN+9FUfZfJTvmeyHJvsVqs3+pKvdyefiUz1MVNf9z6Dwd+DeGKq80VPqNzjNJ6hv/WExv3wbWN9oGe+zDGyn9+G1Dz1gNZcMBoYjJXHfq+smXCtqJW8aDqn5YLLff8xffy+nvX3d04pstffZcdOMJG+EY77+6zD8saO1sRcurZfV8OkfOjVntk4MMrG94vxIft2HXB/W99kxF7L6e8ByKyXs/7XodGOieqe//qaWFcerlt8GODJ342jU983t56UFd7/55QQ/f3/0aFb8O/vfEoq1W54svAAAH0ugjiOo3vOCQUZHdDOZht9S0/SkGUctFVexme7tWqylvU0u3g1G++Vr7de+1cD4d79EJDvnilDsj6mZkxYvoY88SYXcnZPz7WF+AJuinN7wv5acqsl/p5HBo/tGAvrPv6rq9KulsRc1QzonmH1VU7IyT9yTatwTlStLJYiTvRVP2WXl9fcwVdCYvwb4larMkXFX/v96NnXHWDtWjKfti9Nf6BPVVgmMxrX37qemVG92vs4b0oKwb+9Yf6nr4tqSnL+tEz43X9K47O69nQ8lkByW/9qfbPF3R5ybwnvPEWS3LCufdecXPubJ6u7OQxMz2yUESnvNx/fSGFxw6FSo3aC8VZf/VHgSHRujr8c6h+HbuO5KWpQemftiVnD6aILqfCY3cOVXSF6yKTjzt5zv7Ukp/XyzooYr63G7BoUnVAQCAA2bEAJGr6nXvg9NulJQPfXb2/xjNqFSrqRTeUBnlL455kzS1cufPw9ez+uGA1Ycmy1X1+37f+c8l5UNflPv3nRmyuiL7p502yvxWSbUvRUaWjLJvu5Yrr69/rRbJe5FR/t/OeF/fdd8StNlvlNRo38j5N1xn7VCQpqVW1+ghWysPvG0aX8uHysso/6Va/5u0XeurBMdievtW/ye/3Oh+fe2aipKsf9qf6PiHNwp6KEPP/Kd4uUumct0Jkl9HVh3yptvEr9vEJTzGs8UPbAR9/jfyuni2e4tZ7ZO72u2cT3jc3A/XJEnF3w0dy9/I6+pFQ9Kamn2ml03a2H19wDkUn6ud+5Jk6d0/tbTTlZw+RoLoeze83EVfuxrKVTSiUwUt/OtI/qX317TzYJfrziTrAADAATJigMhnLCn2ehtuXWYu1z1iZpfpZLFMq9wpyNe6R0P1PPZsClt3QsYvftNLFrvz+i5f2ibpVIK+s+/yqv1RUYYclf9L1s9hMyRPRex9S1juv9Rl/lkkr8VEctlMQ8J9i91mCXy4LkdS8d9GAzz9JKxvkmMx8X1z1dySl6OtJ79JwZsGtNXco9GIHR/eyOnHb0snvjnol/lpXHfy+mwkqewXrYqXX+T9sn4cBJ/8lZwWvnZzQN0w1NmLPVNY819rqdWeTjmbfXK4hOd8TEEuIeufQiOC/6WuG7e9ETXZfoHpSUrc12OeQyNaeM7WF9vJ6Zv6nJ8su5MgOmqSI3fq+smXsnr3bcdPVN3U554zJDm7BKkmWQcAAA6WEQNE72l96IT8CLeqXLYgy0nyRzFMq9w588lz3jDsBUk7m+N9GdydvwrMQfNbNTX+qulNPzjlyLpdVuHllHKvh7/kjrBvscoN8mAUZD04QH091r6N0GYxBb/kxxarvkmOxfT2bba4ft4hRye+2Yydy2da151Pnirps8Fqar5fOCvaiU6j+VJKf+8v//3wT71/T3w0E2Zb3HM+id+6qsopSatlZYMg2ct+kKxPoG3SJtHX+51DI3m6os9dzeuT7UBVRp/6vZt65mlJ95v9Ryf5I3f03MWxR+54Ixq9Fdq+8Ht5fVIZfepqo7OK2f85YITUBOsAAMBBM2KA6LSWDEnOut6LvFK/3fsrev2GnwekYqsZHjEzKF9R25qag7/DjFHu/pidHET76bSWTkl60Kfv/FNv35ktGW/6wX9uqfVXTVVOSc7q9dCKNKPu227lSnXb7+sXw/k9WmqNm8tm6nbbt1HbbHfBL/lrHyY5q3arb5JjMa19yyh7MpLjJPrYs6lKrpp/nPVHDrX02dCKZvvpF5sJg4MY0yz1yaR2P+cT8XMQGafC05oMFS82I8nuZ9t451BGC/9a0vsrepgoSB6M3DH0zFfHbatgmpuhE0Z3z2uvYvb+una6XtGE6wAAwMEzYoAoo+yyJFm6Hiw779ZVzQXL0/e3nD3dmadfr8q8Pnjj014ESiv28CVylbBc9PrFg7p+8uf+Sh+RL1KBuulN48uZY/yyKnVuJGTperDU+L/UVf2zAavJjGhy9fVGjJivV1X/l3BPzKjwOa+Prn/YeS7RvsUut2P5U6G+/tOqzO9Prq8fiDZL4rcuqijJuZ1V7gfh64i3tHXXDWDs+nbsfiymt2+nP+Ul/r3yel3uqDeyu9i9P3jBoXffN/qsjLS76Vx3XG91tNedrhvDT/5eo2sKTXsqjT/d5cQ3vX/3S5idvA77a7/qOxt9MoERzvk4glxM1/73m2q2E9M3VPtSb98a1bB2GKeve/qfQ1HD6iBJn/r/FL2pXH8eHqXj6sMbV7zcPl8o9OZHao/cuRZretzwOvhBKjl66HQn3P7Fvdt6KElPL2kh9LyUvA4AABw2oy9z71aVy/Yu/WoUi5JlaTm0zL23/Hp0y45iaNu2AUveh5e5H6ncOAa8d9uMLnkfa5l7f9nWfgavKOQv4SpJMlRpNhRdTC6RAcsGG2eL0qql5bGXud+b+noiy5oP2Lbvvg3Y1tNdrvuDnLK3+28phZZLH9kBabM2b/ltq2cJ+oifmgNyA0WWmh5QB88Yx2JAuePv2/CltPeiPwTLZg/0dEVf/Es/Se60rjsDyzV04puNXYNWg5f+DsSow0jiHONRTLq+Seq5/30ykQHnpidyjWrbvT2GXR+MU0Vd+99rXQnrkxutHQb29ZHOoTh1CALI0eclPV3U5/6yFpm+1Qk477r8vBSvDgP3zdPTFonrEGCZewDA4THiCCJJmZIadkVGMIraMFS0m2pcXYpsKGVKDTUrRXUGXBsyiraadiX0XES+pqZd7JTfx0jlIsLQwnMVfc4a9otiXrVJTtv7jZIaf1SREXz5OmWo+EdNNQq9fWc0k6/vzT8qduoreX3trK1m9CYiyb4lKDfzpYaaFyN9/ayt5h9Nqq8fkDZL6rdqfn6RcCsZKl682b2KWYL6JjoWU9u3jEr/2VtCvOc9J2LC/aHHtK47QbmDbmyTGqUO+2k/63vA+mSCcz6JzJe8VdskRcqWnAeWCi+b6jfeJb4Jt0OPOOdQnDpklP3LICl0wPCSVvcEh0YZuROjDudq+l3L1omnu3vkwtNFfc6KBodGqQMAAIfP6COIMHNijSAakVs3daVgyVFxKuVP2kGr7yygzRA2C/2BOiR30OqbxOzvWzCKqij7lehIIVfV17Mqr44/mmoW2oE6hDGCCABweIw+gghzIUisnS1Y3pLh9n5+CdvdQavvLKDNEDYL/YE6JHfQ6pvEwdm3zsqFzUj2RPdf3tP6qiQZWuoZPhPPLLQDdQAA4HCbgwBRXWZ0tbCBj3GHfs8CS4X2/uQU5BAfl2EUZTdHzOm0Dw5afWcBbYawWegP1CG5g1bfJGZ/3/yVC2Wp/HLWW+Lef2T9pe6N6PTWEcxCO8x9Hdyqcu3vWkEuJAAADr45mGIWTmS4m/0epjye3qTdAxI3AgCAKXBVf/2Krm85ckIJu41TRV3+3asq/RYfyIdCv4VamGIGADgE5iBABAAAAAAAgGHmYIoZAAAAAAAAhiFABAAAAAAAMOcIEAEAAAAAAMw5AkQAAAAAAABzjgARAAAAAADAnCNABAAAAAAAMOcIEAEAAAAAAMw5AkQAAAAAAABzjgARAAAAAADAnCNABAAAAAAAMOcIEAEAAAAAAMw5AkQAAAAAAABzjgARAAAAAADAnCNABAAAAAAAMOcIEAEAAAAAAMw5AkQAAAAAAABzjgARAAAAAADAnCNABAAAAAAAMOcIEAEAAAAAAMw5AkQAAAAAAABzjgARAAAAAADAnCNABAAAAAAAMOcIEAEAAAAAAMw5AkQAMGGpVEqpVCr6NAAAAADMLAJEAAAAAAAAc44AEQAAAAAAwJwjQIR95VZzSqVSypn16EtjmVa5c8E9IjN3RLTccNXcJ1R1o88CAAAAwME0RwGiukw/L0j7QfBgn7myVxxJkmPdjhWQcOumcrnu49h7GJOXO5K6OeD945rFPnlEZvaILOeICuaR6Iv9jd0OB49b/YTKjlTOEiQCAAAAcDjMUYAoObeaUy5lTi/AMFGu6mZOuVCwIZczVXdn+e41o8JlQ5JkFC8qH305wq3mlC1YcrzYzxDJyj2sRum/1dwRWZJkfKxm7ePoy1M1Sn0nL3Qe5aoadPZkSv9LdtH7/3KW0VYAAAAADr45ChDlVWu11Gq11GrZ8u/thnpv3dGusYiZUJeZyqpgddfXcSwVsjdm+uY1U2qo1WqpUdstjBOMCjJUsZv+cfQe/f40frn7KXmfTCJp/w1GxUgfy258rEx0gylLWt+Jcr3AUKrPeTRIvva/VDEkKcFoKwAAAACYUXMUIDq86mZBliSjaKsZCpy0mrYqxaXo5gfUe1p3JBWvqZTf69DFHHCP6ErZ+9+i/fHcjbqq3/ACQ14AshI7WFe65o+yso7M1RQ7AAAAAIfPGAEiL39KrupKclU1vaTAXmLgflMzXNWrZmgKVE45s95nO/XZ1iuzHtk4SETcc2Pm50Tx6paQ/7epVEoFS5IsFSJ5YkYqd+oMXb6a7x71kcmrVCt13ex7bZZT1ZXccBvnzAG5VKLHYthxk+TWu/pCKpWT2VPwtHLvJC03yb7524bzH3kdZA9F69vnvBix/7r2EW/UjPGxrg6NDiVoB78v9E57DG0zSn3jlJtQ/mLFD7A2VMpnoy8Plv/YH0UkWbcZRQQAAADg4BojQORbt2WmsipbnUkZjlVWNnJjXjezKpSt0NQNR45VULZPno/ebb0yCzeG3ezPO0flG4OCG71WrqSUDbexY6mc9QJHYb3HYvBxk1tVLlvo6guSI6t8pafcWNxqKAjgjZKSVegKHgzLE7Ob+PvmdraNM/doSnrrO7nzwl7x/mtcHja1LEk7uKpe8fpCV30dS4XsOHmGplRuvqRGLRJgjakzikijvz8AAAAA7LOxA0SOVZYVzgvT9HOphFePqpve6ICuKVBN2UVDcsrqvr+t67YlqVjpmi7VtCvak9lS+Vr7Pb0ktEXZ4WlbrZYapVFuI6W62T0youfRE5iIJ1+zVTS84Ek2lZNZ3S1Q5MhxwlPSmrIrhiRHK3boLxMdN1fVK2U5PVPdmrIry+ENp5h7J0G5SfatfsPb1qjIbnb6QTPIUrwnYp4Xo/Rf94j8Rd90udD9Upek7bBcjOSLavp1snQ7aN9R6hun3L10WvIGER1Rc/iJBwAAAAAza+wAkXdD1+jkhcnkdTFyv1j37mxld/1Cn1G+dk1FSVa/uzprRXZozkgmX1KtNHTuyxzLq9Zoyq4UZciRVS4o22/6UYhRaYZGTGSUL3nHwlmx28GlRMfNtb0gQ9GOjMTIKF+qKXqPH0umpEY7COAHfIp2V/Cg1SiNNOoj/r65ql73t22UFE5/NMr7jm0a58V7ipGUOWk7ZFSq1SL5ojLKRy8OiU2r3DFkpCAEuv5e5DUAAAAAOCDGDxD1WUY8X2up1ar5z7tqrqlvbpH2tKG1ZmjES1412wt0lAtZP4fN4EDHQeK1y5DHiMEOjxeIabRaaja9EUWOVVahz7QxSVrORt/ptJb8XCqehMftvXU5kooXo71hFiXcN0kylnQ6/O89txfnxcfq6RZRSdrBrcvMhfNRDclXlMS0ygUAAACAOTZ+gGga8jU1Wk1v+ozhyCqXVcimlBuacBiBTCavWqOlpj9trDyBHDW7cb2IyyHkr542C6Z+XgybIpWwHfx8VNbuyYqSmVa5AAAAADDn9iBAlFF22ctb0rUE+64jZzLe9JlGS61WUxVDcqzrfUfDRNVvTzJYsTbkpjmZaeUgGiTjTxvrGQ3TTzBFbDnbnnaW5Lhlst4km7VJNdZUJdk3f2SVs67o7CFvmtpeS3pexOi/7Rw6w6ZIJWuH+g0/H1UlnOOppdagfEVtw+s7erlT5ErBFWcp9vAqAAAAAJgtexAgkk4veYl/r5h1uUNu/iRvhIBpVlXv2jCjwmVvNEz4BjYISli3g8CKq7qZU6FrFa3RnfbuiLVi75b0eT/VZeZMVetudx1dV3Xzujddqh306dog9L91mX6C6fAUsUTHLX/Ry2FUzirXlSTbWxZ9cABjf8TfNz+YJEvXg51w66rmgmXZ90iC8yIQu/+GcuisNSOvtY3WDsvZ0+2+59arMq8P3jh2fROWO3XtHE4xpugBAAAAwIzakwBRpnTTH+lQUDbbO3ImOkNmzSqrkM12bZMtO5KK6kpx4wclZJWVTaWUSmW94JDRlUzHUzdD5fUumZ7rE8EIAlCOn/R52LZxTC0HkWOpXMh21TGV9dtCRdlXe/MCWYVQ+2YL8ja1VQttmuy4eTly1NNeWRXKkRFdIxyLWBKUm2Tf8lcrMvzgV8pvr7IjGcVie+TNSBLUV0nOC1/8/vtxO7G8s3JkYHAmSTt4wZ7ufpYtlL1+NkCc+o5Sbiz9joUTXFeGj+6r3z7i/U9RPfnYAAAAAOCg2JMAkZRRqeEtIR69keyRKemmXYzEeAx/6fQg8XUgr1qz4i3x7m9XrNhqNvypVePK19TsqcusyavWtFWJtq3ht1mz1rXiVF+G327h6JCU7LgpaK+Kil0NZqhYuTnaKmZTlWDfMiU17EqnHxiGinZTjavh9eWnLNF54UvQf/NXP/bawTmigSmrErRDptRQsxIOHPl1tb0gU18x6jtSudPkHlEweKly9ePoqwAAAABwYBy5f//+0LuadDodfQoHmFvNKVt2VLRbXaOFgLr5CX+62MeyWx/3DzqhSzX3CXmDuD5Wq9a5lKZSKUlSq9UKbQ0AAAAAs2uPRhABmHX52sf+yLsjKuQGTzWDp276wSF9LDsUHAIAAACAg4gAETARdZmhvDnDH6YGzeLaXx+r1uxMNcuafm6dA2f6x8KtBqOtpEqT0VYAAAAADj4CRAA6Mh+r0fxYRYNRMcNkSv9LFUOqNP/XDObXAgAAAIDkyEEEABOWIgcRAAAAgAOGEUQAMGGtVovgEAAAAIADhQARAAAAAADAnCNABAAAAAAAMOdmOkD0uPqSXkk9r5r5TvSlfVCXmRttxaP5QRsBAAAAAHAQzXCA6KE2Vj6QJD2yVrURfXlPuarmCrIcSW70tYOmzxLg5oRCOq4kx1JhxKXDAQAAAADA/pjhANEJnbn8lCTpePGszkRfHtHj6kuqpV5LFHCqm1mVHUOVZk35OVzS2q3mlIsT9MnkVWtWZMhSYVJBJwAAAAAAMHUzHCCSjpW+pZdbb8isPRt9aWSP1z/Qo+iTw9RNFSzJqNxU6VAEh/Kq+SsstVq2itGX+3hv3ZETfXKQTEk3K4ZkFUSMCAAAAACAg2GmA0T7z1X1uiUZFd08HNGhPZEpXVNRknW9evBn5AEAAAAAMAdGDhB5CaRfUsOVHldfUy31vF5JPa9Xcq+p0RMVeEdvpp5XrfpQ0kM1TC/5tJeA+i097rNt8Porqef1yoAk1Z06PNTGsDrUX2uXtWJJUkMrkffw6hZRv6GyIxmXCxocHvJy+uSqrhdQMnPt3D45s1+AxFW9airXzgGUU86s99lOfbb1yqxHNnar3nv2jNipm97fVPuXPpT/t6lUSgVLkiwVIrmLBpeb19WKITll3YjWCQAAAAAAzJyRA0SBtSvP6zvlRmfaltPQ21kvcNRj/R29mXpBb1te8mlJemR9V98ZEACK5wOtXXlBKz11SJZnqJ/6bUuSocuFweGhtnVbZiqrstWZjOVYZWUjUZu6mVWhbIWmbDlyrIKyud5gUu+2XpmFAxB1yRQuy5Bk3Z79ugIAAAAAMO/GDBB9oEeOdLz4or7eekMvt17V5cpTXtDG7h2R88j6rtb0lJ6zX9XLrTf0cvNFLUtS1yplz+orrTe811v+67voqUNRkhpaD2IT+W/45b3hv5bT5fZ7eA+zdKKrTMlVc02ScVlx4kOOVZYlQxW76eX3afr5fazbneTOfj4jFW0123mAmrKL/Ubb1HXbklSshLZtqWlXVFwKbzcl+Vr7Pe2iJBVlh+rRarXUGDbtLlPQZUPSWrMn8AUAAAAAAGbLmAEi6XjlVZm1Z3VM8lYeK13SsqRHK+9Epo7JD8x8S7m8H4zJPKulOFmSd1N8sbsOF3OSpEfN3iBVfO9p3ZG0nB0yvSysKLvVUClY5iyT18XIvnkjkoqya/lQmRnla37Onn6jbawV2aE5ZZl8SbVSvmuT2ZRRdlmSs673oi8BAAAAAICZMn6AKBsdeXNSx43IU4E+y9Wfqb2hl1vf6Hk+ieWLk1vlbGTFi4qGbfK1llqtmv+8PyKpTy6fVKogS9HRNnnV7KIMOSoXskqlcjKrvfmHAAAAAAAAxjV2gAhTlK+p0Wp608oMR1a5rEI2pVxPNmoAAAAAAIDRTT5A5L6jNUfS8gl/ytcs2tTjXUfinNbSRHPo+FOujO6cQl2PRqnPdLaMN62s4eUrqhiSY13XwAXEQuq316JPjWFNzRjv2RHkcFrS6ehLAAAAAABgpkwgQBTK8+O+ozevfFePZmXaVx/HloIk2v1yJIUFOXRWZCcKjAx2eslLRn3FrMvdrUy3KtOsqt61YUaFy4YkR+uhxD6ZrJfK27odrITmqm7mVAitqDaO00vee67Y9fjBMtfWSqIcTgAAAAAAYL+MHSBaK7ygV1LPe4/st73RQ8UX9ZVoQp646q91ykt9W17anm+3n6tVx0k8LR3LpiVJj8rf1nfa79O/3PzFoh8YiR0WGSpTuumPACoom43mIUopOnNszSqrkM12bZMtO5KKuhhu3/xFf8W0srKplFKprBccMvokg6qbvbmPrEL7uVyfoUlBAMopF/zyB28bcO0VOZKKXRUFAAAAAACzaOwAURfjKS1XXtTXa7M5ekjylrz/up0bnEg7LH/VC+iUb3SWqh9LRqWGt6z9rm+fKemmXYzEeAwZRVvNduLrQF61ZkXF9raGihVbzYa3OtrY8jU1e+oyjCt7xZGMiq4SHwIAAAAAYOYduX///sfRJ8PSaW/ETdTj6kv6TvkDLdtvjD5a6CCom0oVLBmVpholJkvF4VZzypYdFe2Waoe5bwAAAAAAcEhMdgTRYZSvyS5KTvlKrMTQc8+t6krZkYo2wSEAAAAAAA4IAkQx5Gu2inJUzpqqEyQazK3LzJblGBU1iQ4BAAAAAHBgECCKJa9ay/Zy/DDLbLCMJKMou1GimQAAAAAAOEBGzkEEAAAAAACAw4ERRAAAAAAAAHOOABEAAAAAAMCcI0AEAAAAAAAw5wgQAQAAAAAAzDkCRAAAAAAAAHOOABEAAAAAAMCcI0AEAAAAAAAw5wgQAQAAAAAAzDkCRAAAAAAAAHOOABEAAAAAAMCcI0AEAAAAAAAw5wgQAQAAAAAAzDkCRAAAAAAAAHOOABEAAAAAAMCcI0AEAAAAAAAw5wgQAQAAAAAAzDkCRAAAAAAAAHOOABEAAAAAAMCc+/8DD+hKvlB+F50AAAAASUVORK5CYII=;" vertex="1" parent="1">
          <mxGeometry x="280" y="1240" width="1160" height="370" as="geometry" />
        </mxCell>
        <mxCell id="qt4YQUw-A0yyjYUw5AoC-26" value="" style="shape=image;verticalLabelPosition=bottom;labelBackgroundColor=default;verticalAlign=top;aspect=fixed;imageAspect=0;image=data:image/png,iVBORw0KGgoAAAANSUhEUgAAAtwAAAGDCAYAAAAYmcfWAAAAAXNSR0IArs4c6QAAAARnQU1BAACxjwv8YQUAAAAJcEhZcwAADsMAAA7DAcdvqGQAAHs4SURBVHhe7d1vjNxmfif4r7de5A6I3Ic5QQNLaugwFXG0ff3CmYzQ5i4RJAYcl8GdnYahNDwvbjswlmfaZ9Qu5ROMBTTKnSxgMRDsQgivpxwCQjpvLHQMo51ZwvQZ8M7N1YbT0GTgF3V9PdRwIEF/DDe0AWTlzQQgdC8esopksapIdrG7qvv7AQhIVaynH5IPWb96+HsePnHr1q3HyDA/P59+iYiIiIiICvpn6ReIiIiIiGhyGHATEREREVWIATcRERERUYUYcBMRERERVYgBNxERERFRhRhwExERERFViAE3EREREVGFGHATEREREVWIATfRjHi0/Rk+/PBDfLZ5L/3WzJu1bZu1+hIR0f564qA/afLR9mf4tPsQ8/I5LJ1Iv1uBe5v40L2zd3+PZs+jbXz2aRdYfB7PnTmSfneIR9j+7FN0HwLAPORzS5jO5nUPmx+6uBN/aV7GuZEnw6xsW2TW6rufyrSH6fHo3iZ+vnUHDx/2X+O1nYjKKN3D/Wj7M3z42TYehf+/t/lh4v/iS+lDfPjhhxjoBLq3iQ8//BAffriJ9FtFPNr+DJ/tsoxD5dE9bG+KnjmxfIbN7f4Ro2zT0c6O4MT8HABgbv7kAQvwqtm26o5bNfWtSnX74WB7tP0ZPnWTwTYRUVmlA+6vHz4EnjwC0T/3CI++Ruz/APB170J1527yUn/vbqK/o7SvHz4Er4U5PdrGZ5+66N6J77GHuNP9FB8O/CKiuGlpZ0fOPIdz587huanuXjuBpXPncO7cOZw7JyPvfbIqtq3K41ZFfatS5X4Yr1x72H+PcO/OQwBzWJSfD+svlhk45EQ0hUoG3CLAnpt7Mvx/P7hOm5+fB+7cjfWu3MPdO3OYD3uIaI8cOYIn5+YTXx7Py+HXX+L4EBEdduF32vwCzpzIm/ZFRDRcwRzujHy8LPMyzi0Bmx+6gCwDrgtEeW/3NvHh1hzk+Ttwu0+m8h8f4d72Fra6d8IemTnMzS/gmaUT/Z7zMEd6lLlYbmw8h3vh0SZ+HpU9N4/FZ5YwmEL7CPc2f46tO/1eobm5eSw8s4TB625Y3zuDtx1nJc/v3uaHcO/MYfH55zL2xSFWsJ0BYcrO1hbujGs7Q3K4xbEQ58/zvTafcc4NyYEVbR1YfP4ZHLkXO4/GtHU3cdcjMok2EdZ9SH2LbJuQvj4Ac/OLWFg409+/ZY5bbvnrW+RY9Nd9Difujb5GDR2TEm53b9sq3Q8F2nrCuPaAfMe4p8i1uqg8dRXrfL34PJ47A2xv/rx3B3FufhHPLJ2J3fFFvvqG14Yn5XM4efczcW7OLeL5507gXlj+3Lxc6s5K7rbT/0SxYzHuuxsosc+IDo6SPdw5PHqErwEAJ3Byvp9Wcu/uHczNn8CJI08C+BqPYinE9zY/hRs7uYGHeHjHxaeJ3PAy5vD11mf4NF72wzvofprOaxSDodzYBREAHj68A/fTz5BMd37Ur29WvEKHzCNs/1yk7Ay2nXQ7G/Ro+7NesH1u4EuqiIe48/PUeTSmrc+KwesD8PBOF+7WuL27X/IeC+HOzz/MuEalrzvTYHdtfZT8x7jItTqnR9v4rDe+JfxhdceNjXlJj1MKPbyHzQ8/TaTrPbzTxaeJVL1i9f16Kwy2IdrBViwwfXhna2D9KuQ/FlnrjvnuzrXPiA6W2r//9//+/0i/CABzc1kpH0/i5MICFhbm8GjrLubkc/iTZxawMP/PcM/fwbHo/yefBP7pAX7j7+B35hfwz598hK27T2C+/lv4P3+EY7//z3H0t/ewdfe3OPZ7dRz9HfEr+//6f78WvXt/8gx+f2EBCwvzmHv0AHd37uCf5hZw8kkAT57EwsICFhYWMPdoC3e/nod87k/wTPjawsIC6kd/p1fjf3rwG/g7D/Hb3/4Wc/My/uhPnsHvL8xj7pGPu19/jSeicgE82v4Z3Du/BeYWIf/RH+KZ34/V4euH2PmnObFtAHDvC1HfxLoLmJ97BP/u15ib75c7ve7h//v5XXw9dxq//8+Por/XqGg7A/4JDx78E479zzL+8JnfD9fJbmfRuYFjv4f60d/p9TzNzcv43kDPVXTO9c+7r+fm++0wRrT13+K3v8XYto57X+Cnvxbt9/nv/aE43+bn8Mi/i68xD/ncH+Jbu24Qj3BvRH2LbFuvrc4v4vk/Ceu7sID5uX+Gf3rid3DyaPiZwsetiPz1LXIs+teo1Lr/7AHu7jzEb//7+V6do3IHri+P7mHr7tf478I2Ve1+KNDWE8a1h5zHuOi1Oq/wvPxt+vW4/+4Yfq8eXSvF9ux8vYOvMYdF+Y/E/ojOo6+fwNzCSTxZpL5hHR7+9reYW3we36v/E7bu7uDrr3+Lefkc5P/hHvydh/idY8P28XC52w5Q6Fjk/u4Wfyz3PiM6aMr1cD96hK8xh34K90M8jP8/7cRJzD+8g3vbd3Fnbj7jdlQ0kHIecqJ37whOLC1gPmPgZWHhbThR9hGcOClSZr7udbFHg2TmIT8Xv2V2BCeWnsHiXDzX+RG2t8L6JtbFLnom+6I5ftPLZxPu1ri36eIO5rD4zO5u4xWp7zSsW40jOLO0lMr37LezYeLBdpnbxJnGtnXg0SNx/2l+IXbsj5zAwuLcwJ2nqXLnDu7d61fuyIkzWDozof1WhRzHIjK3+Hxy3TPi2vfwzr3sXsJ9U66t5zb2GBe5Vhdw5AyeSw/wnJcTAybPPZd1rZyHfO65/v44Iu7q9pWo79winomnd8wtYuEEcOTIsC/Ziow9FmW/u8ftM6KDp1DA3QtqPu3iIR6i+2kY2Lh3gN7/B2+PibSSh+h2RTpJ/6R8iIdfA4hmOcEduANBU3hr7+tHu/rSmT857ks5GiSTNc3XEYjrXCoQmZub2V/i9zZFCsO8vNs8Xep5dA+bn6UC/1F5tHd+jk+7D3tB2aSMb+v9L+47d2O3fB/dw1b3IYAncWTq2sQJLMnzmMNDdN1PwykttxGLBaZSnmMReXJgpz+JzBuN06BoW88l7zEuca2uUkY9Tiydw7ne+KTi9U1+Tw7+v3p5j0XJ7+6MfZHcZ0QHT6GAu5BUr7fo/ZjDfFb39swZPivLJERTjqWX0gOcEh6Fg/MeYl5+fiIDO4vUdxrWrUQ47eKdIg1jfiHs3doanKu+aieiv93Fp9EX5KfhF2TGl+FUOLGE5849j+flRczPPcSdbhfup3za454r09bz4jGeHjwWRBNVKOCOgprnF+fCW0IiqJHnxS2v58+dw7lzQ3pMTywNfy/6ld8rI2PJvJWHgZ6BXUvf2gNiv+Kjnr+w5+nhw3BgaN+k5hivRjRwJ5pFJXuPUpbR7ezeVhcPAcwtysk2HE29mOlJnHlOFl9mbtadoQrd20L3YXqsxhzmF58fMSvDNDgibms/dw7nzj2Pxblxg8hGH7ep9uge7jxMP98g27276StR2uT2Q7m2XkTOY5zrWj1FprS+o9vOuGOxm+9uosOlUMAd+TrRsxFdMHbnybk54GEXP9+8l/uL4UkR9eLOvUnkOEY5ZHfgbsbLE1M5dRO3BKPbgHewFV15Ht3D9mfhtG5TKXoc9dzgtFA0UpF29uSRJ3tfLo/ubWNza1yDOIGl52TM4+GezkgR5V0uPPMMnn8++nJ8DkvZv4j336NtbG5u417i4hA98TFKTUsqctymQ6yWj+5h8+cisI2npQymAj0K08OG9zZXtR+Kt/Uxch/jItfqaTAd9S3UdnIfi3Lf3USHUcF5uIV7mx/C/XoRzz93BkeiQO7J5Hyl8bllM7/DB+YijgLC9IpCZpA4ZK7ZYfNwj597NGOe3cjcPOTnYvllYf3T1Z2bnwfu3MGT6b+3z6L9MNRcdDxpQIF2Nkyi/Q20/Xh7mk/OTT/kb0ey6pCnrY+q78DcwEUUqG+hdYecb0Jqn0WGlD8433BOQ8qLZO3f3R6LwXm+h1yj5uaAhw+zt21IvTPXzWFkfdNtfcjfjpQ/xkP2AzKu1aXkn4d79DqRnPVNXxvS7SX8/0C7ymVIHbLaTqFjUeS7u8g+IzpYSvRwp3u0J5XPfARnnnse8vwcco8TOrGE5+X5CQ4sOoGl52UsJp6COYe5eRnPpy/gR87gOXmx/7fn5jAvP4/nFiZWGZoWOdrZkTPP4fnF+VjbDduNvJivPR85g+fkedEL9tnu5jLO40g4AwbC79u4ScynPHFHzuCZgWMQ7uOsYBv5jtvUmpvD/KJ4AFLSCSw9v4j+JSpc77n+8Rww4f2w67Y+TKFjXOBaPRWmob4F2k6hY1Hiu5voECrVw01EsyzqkZqH/Hy6J/sRtjc/RbeX5x9/j6owtDeciIgOjBI93EQ02/p3pdITdj169DUe3oHozZrVOS+JiIimDHu4iQ6d0TmXQPn8XiqOPdxERAcfe7iJDp1YzmUq6XJubh6LMoNtIiKiSWIPNxERERFRhdjDTURERERUIQbcREREREQVYsBNRERERFQhBtxEhTjQFR1O+uWZdJC2hYiIaHpNLODe1l/C5dpLuKzfSL9Vwn1sm++iXQvLDJePDllk4Jh/jVrtHSj6Jvz0myM4+juo1d5BTf91+i1gF+UWMa4OY/mbUGphGb3F3ufg0IepqLBcIPeOc3TUajXo+1vxbD4A14JaY9BNRERUpYkF3JO0rZ/HutHBTvqNQ+XX2DAeAABc61ew8wZ4Y1VV7mzxnU3oyl8X+kHg6BIMV0bLa6NRT79bLd9UoEw6MK430PZakGFBncpfBERERAfD9AXc/sf4qSX+eaz1Bl4LruNSuLzYSK98kP0elltHAQCy9m2oEwvwqip3wupL6ATnEQTn4YX1nZx/gH3lv8JyxQ+PXBwdqgXIrTU092Gf3dxy4aZfnIR6E2stGbDU6eyFJyIiOgCmL+C+eSfs2T6FRfUsJh1qzZJG898gCM6j017CJGO8qso9uHyYVyxAbmFtP6LtitWbF6EBsK6YuTNliIiIKL+SAfd9bOtvJnKs18Ne6UGD+dht/WNs7+k3+z/A0f86mROs2HD8f0isFeUdK+Y/wHfs2Pp/Dd1Mriv8Axwzvp7Ii3aGbZv/a5HGECtX0X+dDHIcO5W3PC53eXDb1KxjUabc3NuWsw6VGqxD+hj7Ye56rfZXMKLuYutvE/tEyTrOzlUYLiCvqGN+oPhwTB2KUkOtFi7DdoTvwNQVKNF6tRoURU/u3zD/u1arhfvTghpbv1arQTFTByRPuQMauNCSAdfA1eENAgDg6ApqNYW94URERAWUCLhv4KPaeaxbt3PkWN9HRxnMx96xPsC69C62oxf8j/sBudoJX7yNz6XYoEnlYxRIAIj5NfTaX0G1HiRvybu/giq5mQGna/wVJPVXsfUfwDL+KhWM/QNM5a+gGvH1ANf6r1CljEDWsVGT/jaVxvAArvW3Y4Oc4YZs264V2baq6lDEkDqMOMZFOBsWABkrI/NvfDi6BNWw4I7dET7MVRWGlUwTcV0LqrSbPO3y5dbVFcgArI1RaznYsFwALnvDiYiICigccG/rb6MLiJQP+51efvWKll4TeGD+BT53xbrPRut6b2ARANDB+kRmNBnD+RVEH+NRaLbICQ6C8/C8fw1NHpGwIv9L2N55BMGfoSWLl1yjH7z55n8Oe0mPomX/mSjX+9cQu+FXUBOD8X4NXf2V+Kf87bBcUbZnfxsLsTXRUPt1HJO77Oh/G9u2sA7BedgZx6JIuUW2rVAdqpLzGNfDVJr4MYX2r3vrB8F5dJrf6K0v+PC6AOSV0fnuzlXRCy23YHsBgkAs3rAdsaihZXu99YLAC/eZhV7M22j33hfvabB764ulk05xyVNulrqKFRlA1xsRSDewrMkAZGgXx/X2ExERUaRgwH0DW70Bjf8OLzaOp1eIuY/t9dtAuK4SrVs/iz9snRL/7t4Xvdb170OPBkfaSvj5U3jW6w+YvNT5/i7zuR/AutJPiajXfw/tzhIyx2HK34bdWQpnovgGmhe/Hb7x3+D5EIPu1kVPtdz6V2g2wiCt/nu4EAWz3f/WC1x88+96AWFrTY3NcPEN1BsqmpmVGOfX2AiPhdz6V2hHddi1IttWVR3KKnCMc7uJLRfAojQiwAxzvKHB7jQTM5hkf6aOZruNZmKqkzoay0OC89x2U24d0iIAdws302/FNNodBEEH7b2epoWIiGiGFQu4/fu91JBj0qhgGwDuYSe8r71jnE/Mp/2eIQJxuHdKpokU0JD7vZnuf4UqjctHBoCjOB3/7+mjEEU8wNZNAPgHEYSF6SfxHGApnHIP7oNe4HJzK3xNnuCsIP5/C+80AIvSJAPdAttWWR0KKnWMKyAvJNvNKL4DXVES+dhD872LqKpcIiIiKq1YwD2TvoFm58/g2f8SWhSU9fKR/5qDvw6E/T7GYS94Xr4JRVJhjU/2LqaqcomIiGhXJhRw38eDqKuz5wSOhcHPsVY/1zu5vI4z6Y9V4huoN5bQ7oR5060oReQBrI3xDz7x7Wjw4FEsnAaAb2Ah3Da51c9bTi5qL5Xh9EKYiuHuxYNm/kHkHJdWbNuy7bYOZezuGA93WuyPkbnN4ToZ6RhiwGXqtasGXAByy4YXz8kelu/d0w1TmrKVLxexXPUCvfRERESUS7GAu34Wi2Ew1r0SzRoiZiIRgyPjjuPMisjV3jH+Ah8599Mr7AnftMXUe71A5Ruoq1GKyHi+s4nVKJWilxLyDagrIoh2jf8M3cmYSi6mrn67l5JirNqxNAcx/WD2lINj1E+LQW4ArCvRI9rF7CK9Ke9KKbBtldWhmOLH+BsiXxkArF+NSTuJcpvXR/xYCteBhSvRNH2+A1OJpvPLtiid7uV4+44J/crwlU+LiB7rtjMi8BeKlNvj21gfm6vOaQGJiIjKeOLWrVuP0y8CwPz8fPolAMAD881+DnbMMfkUdtzbgPYGLrXPhq/ewEfK2+gOCb6Otd6B3kzlgjvvhlMDnsKz3o+gjPr2z8E3/7qfezzgKFrev+k9OdDRR80fnVwX+DV05W9hDdk2ufVniRkvRtUjvu6o9QAA8r+E1xEPrBm2riwfhes+EDNwtH8PGLFuT6zcIts2rNysOhQxrNyeHPtBSB+3kGOjFs0cE5M+bgDEfNiqBbnlDc4KEvFNKJLoYY6TNQ2wLCzaAdrhbQHfVCCN+EWixdbtCeuQFq9TqXJD0WdHrQM40GuqGAAst+B1miODcyIiIhKK9XADONr8EV5rKTjWe0VMD6hfzArQz+LFzjtY0U7F1t9b9ea/gt36NuREd+dRyNq/hJ0ViA04Cln71/CC9Lq/h3bnz2Bro3pS++rNfxPmGMfnWhFlr6UDvJzqzX8DrxX1nqM3NV/n4v+YWK+4/NtWXR3yK3WMG6qo97gNBIDGBYjnwlwdPpd1vYmO3eqXJ8vQbA+dC4lJHwEA9WYHXkuL7TMZsmbDs1vD93ejDc/WRta3VLkAAB/2ugvILVwYGmyD0wISERGVVLiH+yDr9XAnenuJcvZyz6h8vdtERERUVuEebqJDqdGGrQGusYr009Rnmm9i1XABzWawTUREVBEG3LQHfg09Np/36CX96Pjp0Wjb0ODCkPQxAy1nhO9Alwy4cgseo20iIqLKMOAmyq2BdmCLub4PQlZJHYAsno55EDaHiIhoWjGHm4iIiIioQuzhJiIiIiKqEANuIiIiIqIKMeAmIiIiIqoQA24iIiIiogox4KYMDvRaDbX4ok/rZH17x3d0KEq4PxQTB2FmwP3lw+ztTwX6gZhrkYiIaBADbtpzvqlAqelTO992JkeHpFpw3fQbcT6+/BsdP32hhp+Ey0+vOvjH9GpF3XXgXVV6Zf7kBQV//zeTDU7/8W/65f/9z9PvFuHg72Pbn1j+N3P4vnBdWKoE/q4jIqKDiAE3ZWigHQQIggBBYENLv71LN7dcjIxbp5CzYQEAtJYn9kvG3NVfXpXwi2sWHsVee/S5iv8yKtAc566Jn2oqfvV5fI+5uH9Nwk+uTig6vWviF9f244jU0eyIdua1RCuzNia0TURERFOEATdRXnILF5rpMDv0cx2/+BzAtzR81wrwvU8CfM+ycfxbAH5j4Bdle6RPSjjyLQ3f/nNPlPlJgD/+8/An0Ocb+DK9fmE+vP9o4BE0fPtlOf1maUde7te3t/ynJn43vWKo3ryA1uT+PBER0VQ5BAG3yEdWTF/kjOpKLy9Z0bPycH04pg6ll7+sQNGd5Hq+CaVWg+4ATlSeYsKPla8M3Bv34ehKrNwaFCX1iPCw3GH5wY4u6mMmKzO+vpVL10Hs28S2OXrvPdUCAAtqbP1a7xjNpi//HwuAjG//hzaeOhm+eLKBP/gPLRwB8Oindsle7gb+4D+1IT3TD/R/95k2vvssAHTx6G583eL+8W9W8avfAMf/vI3j6TeJiIhoIg5BwB3asqHXJBhW/9a5axmQUoGxo0tQDSuW8uDCtVRIGUFw94oCNSrPXcdVfbVXvmtdiQXGPkxFgmolUylc14IqxQLouooVWZRlp/8YHGxYAOQVqLFO1iL1rcpgHcS+VSeV8jD1HNz/HMC3VnA8CrYR5l5/sC5STH6zlUg1mQphKsmRlz38wTPpN4mIiGhSDk3A7VoGLMho2WEOrhfmJlsb/cF7ji56XzUbXi+H2YOtyYBrIB0/uq4LueUhsDUALizLhWYH8FoyABdbN8V6vrkKwxUpCbaXKhcujF7BdTQvirLW0xG3swELgHYxljtcsL7VCH8IaK1YHQJ4dgvaQmy1Rrv3nq0BgAY7tn4QBOgMS9cYQ/T8j1h2++PDN8U2DnPXE8H0/ySFKRM+vryq4CeJ3Ovd90b3DQnwCwlTSb7Vwnf/tNx+H+XRNSk2WFLB3/9NzsGj1hWYnK2EiIgOmEMTcIsAr4NmIwwu6g0sp0YDioFxGux2IzYgro5G+yK0rAFdcgtr8SBRbuFCA6hLi7GVfNjrrii300T050W5ayJvNR70N5ahAXDX7USQGNVtuTH4Wu76Vslahx0LlOqNJtrNWGVnkG+G6UKSAUvW0FobHCgZdwQIZymR8IvPXQAyjr9s47sTzI0GgC+vqrgPGd/+D8NzoscRqSS7KyO337i4f23c4NE6mmstaLILQ5VmPsWIiIgo7vAE3Noy0uFfox0gCNrh6z68LjJzi2s1FRYAdL1EECyvqIkALP1/4Sa23Oy/D9QhYvMuvF7B4Q+BRFpJ1IscL6N4favRQNvWICMKlBToZip/u2LiOI5YMmYUqcKjz9XeLCVHnrXxx5908Ad/2gBuTW4GkC+vKvjF58DxP+9AKtu73UslWStfxlAN/EFqsOQfWy2RHz528KiUfoGIiOhAODwB9wxpXGhBjqeVOBsiHebCYMg+FRptdAJPpJHILizDgCplDRydLfVmp5ceI7tWLPUn5aSEI+E/jzzbwnetAH90odFLL3l0CwAWcWRXwa2PL6/W8IvPXRz/893lXP+jK/LKE2kfL9TwX8KpAe//n+Ec4iOD4/x+92QTfxDNrDKCc1WF5cpohWlXZVOMiIiIpg0D7p6wt1lO5iJPrKc0njbSE/VSL0KKFxwOnozSSpwNa2CwZOX1Lawu0kg6AYLAQ0tODxxNi/fq707VOdz1RhMXtVF3DE7jyLcgUkh+0OzPUgIAd23c/w2Aby30gvLifHj/mxT2bAf4g9iMJbPiH+900y+lhOeCdhGMs4mI6KBhwB1zekEMNlzVHfjZkVUJUa64BTUxXZ8PRw8HUw6km9Shiogbti/SSbLSVaqpb0G+CV034SQqENY/NnA07vSCeG/d3uvpC6tSx/E/Etv0q/+o48tocORdB3//Hw08AnD8f8nOlY6mlRx+N0AE27/6jRwG2+n3s40q93f/tDM4R/YnAf44zDU//ufi/3+UMZhyVLnZfPzjz/XwwToyjsuDZRIRER10DLhj6k0xiNG1VEjSYE9p7hgjpdGOZkRRIfXKE9MEQhaDHtPqzYvQ4GLr6gYsaLiY0e1XVX3jc2b38sEttfdaejBb1zKgSmKgW7RI4pdEYpBnJBpU6hrx/TFYbl7TkMP9u3+6hm9/C8BvLPxCC9M0NFX0bj9rDwmUHWxkTiPZF82TDbi9VI/xj0sfX245Ocr9uZ6qo4T/8n9aeAR5d3nnREREM4wBd0IdzY6YVm+y80o00PZstLR4qTJkzYbXiQZtpomeccuyMnrAI1XVt4B6E2u2BjlRgXDbegNSUxpteAOfmXV1SP/Jw3efTR7j4y/b+OOhufdiwOnkTVO5cpjX3hnyo4OIiOjge+LWrVuP0y8CwPz8fPolokPL0WtQLQ32sB8RJfmOjlXVgovJlj1r5YonwqqwNBtBxh0fIiKiWcYebqLcLFwxJ5N3Hg30lFTxhE7NnkzwOmvlCj4c84pIXSIiIjqAGHAfeA70VG738EXPmEmF0JuqMZZ3vsuZTyKyrMH2Aky6U3c2yvVhKjUxnkE8inV6p74kIiLaBQbcRHnUm1izWxPLO48GenY67djTR3dv1srtkWW07DVOCUhERAcSc7iJiIiIiCrEHm4iIiIiogox4CYiIiIiqhADbiIiIiKiCjHgPoR8s+jjuYmIiIioLAbcMVEguq9xqG9Cyf2Y84wp/8ZW3oe9Hj2ee+PQTgMYHev+omQ/qpyIiIholxhwHzp1qCtibjt56CPji/NNBQrn8SYiIiIawIB7pjXQDsT8yEFgQ0u/PUS92RFzKk/m6SUAgJtbLkS/+SzRYPf2X4dzQBMREVElGHATEREREVXo8ATcvgNTj+ftKtBHJO36pg4lWlfRh+T3+nDi69UUKLoz/JHfBesQ5+j9HO18n0grmu+d3rYaFN2EE//jjt57T7UAwIKa+hv5ctGJiIiIDq7DEXD7JhRJhWHFkx5cWMZqRiAto3tFgWRY/RQJ14IhDeYnO7oENb4eXLiWCkkxB4PiQnVI8k1FBLSajaDdwF5kPgxuG+BaBtSr6b1ARERERKMcgoDbh7lqwAUgaza8Xs6uB7u1mF5ZBM2uG1vXg60BgIWNeKzp6L0gOFGmJgOugWRcWrQOfb6pQDJEfYJd5VwXyfd2sGEB0Fqxugbw7Ba0hdhqjXbvPbGP4jnRYumUTIzu9egPW7J+1BARERFNoYMfcPs21l0RGHcSvcN1NJrt7IFyiXXraCyL8LTr9UM8R0SksNNlti9CA2DFo/MydUgF25Mc4JibtQ47lkNSbzTRbu5DPYiIiIhm2MEPuG9uwQWgLecPFMev68PrIjNnuVZTYQFA1+v3wJaoA9ZXIRluL0jfWw20bQ0yXBiqFOaap/K3K9ZoJ3vKB5ZOc09Sa4iIiIh268AH3L6IjPdVqTqsXERLBmBd2Z8H8TTa6ASeSCORXViGAVXi0ymJiIiIijrwAXddEjnS8XSQ3atDWgQgJ3Och/XAlqvDaTQ7tgh21f16CmJdpJF0AgSBh5YMuNaVEXXpotAmjsAcbiIiIjooDnzAjcYyNACuIUEx41PqiWnvhgePo51eEIMjV3UH/rgyStehgXbHhgYXhrSHQbdvQtdNOIkNi55Q6WLrZuzl0OkF8d66XXbaQiIiIqKD6eAH3GE+MgC4hgqp10sqQTVKpHqE6s21sMdXhSQN9sAmMy92U4cG2l5L5FOnpyaMzYPdyx231N5riTmwi6wLoGsZUCUpsU2S4QLQkJWKHvXiJ7dvsNy8mMNNREREB8UhCLhFPrLIRZZjL8rQWmtDZwgZr45mR0wDGC91qN3Uod5Ex9bEIE1lcD7wias3sWZrSFQVcjilYRsZ8Xa4fenPEBEREdETt27depx+EQDm5+fTLxEdGGLKxUXYw35AEBEREU3I4ejhJiIiIiLaJwy46RCLz6O+h4NSiYiI6FBhwE1EREREVCHmcBMRERERVYg93EREREREFWLATURERERUIQbcREREREQVYsBNNGG+qYinbCYfN0pEFONA34sHme2Jg7QtRNVgwH1oONBjj1yv1WqozUxAeB/b5rto117C5djy0VRW34e97gIAXGujui8gR0etVsPMHMJdm932u22+icu1l9DWP8aD9Jt0SPkwFRWWCyDvdKTTfM77AFwLao1BN9EwDLhp6m3r57FudLCTfmMq1aGuiOfby9oyn2J56N3AlnEbALBj/R228wZXtK8emG+iXXsX2+k3JsTRJRiujJbXRqOefrdavqlAmXRgXG+g7bUgw4I6lb8IiPYfA+5Do4F2ECAIAgSBDS399rTyP8ZPLfHPY6038FpwHZfC5cUpjWbrzQ6CIECnPaUVnEkz2n5xFgutUwCAY9q/wJk9Dq6onAdbt6v7ge/oUC1Abq2huQ/t4eaWC3EPbsLqTay1ZMBSp7MXnmifMeCm6XbzTvjFdwqL6lkcTb9PNOXONH+ES8F16O3vs/0eej7MKxYgt7C2H9F2xerNi9AAWFfM3JkyRIcFA+5p4ptQajXUlOyLlaNnPILcd2DqivhcuCiKDiergJyiQX8DvRRhDqEy8Ax0H46px+qgQNGdzG2ojH8DHf3NRJ53W3l38Ba+8654X/kYD3Af27rIr919jm3+HGOxfxWYfmq/KfqQx8uH6ymxstWw239AnmPhwwzLGqjimDY40pjPHqr2G7WzxJKdorCth+3PvI8HTnyswpv4yLyfXr2g9PiHN9HWbwy08wfmm7hcexMdP7W+8i46qR0h1s0YQxFuczuqs/8x2uF6vfMsPO864f/b+o1UIfnqC9zAR72/1S9v6Hmc5/oQO2brFgB0sJ44frFt68lb35BzFYYLyCsqRofbBc75POdQ2PZrtRpEMRbU2PqZ50Wecgc0cKElA66Bq+n2QXTIMeCeJnUVKzIAdx32wEXNwYYFQF6B2rtS+zBXVRhW8hah61pQpQnn6I3g6BJUw4rVwYVrqZCGBF5jhV/Ul2sv4bLaCV+8jc+l2JefEvtS9T9GW3obn1vJ28A7bgfr0puDgQEAuHfwM/081i2RXwsAO9YHeG8gAKiKi/XV1H5zLRgDx83v798c94HzHYs6mh2RlmGp8b/nw1w14EJGa605JiDIwPa7KzvGebynxscq3EbXOJ/dfnMaHP9wGzvW23gvfv7E3uuuptZ3O/hcyv6hkNfOlTf755n7d/iZ/hf4PPz/jvVhIqAvVl8AWzfwUe18rzxknsf30Vkddn3Y3bYVra8jTgKs9E+CDEXO+arOofLl1tUVyACsjVFrER0+DLinSh3Ni5oIxtIRi7MBC4B2MRUILWpo2V6Y2xogCDzYGgBY2JPrXZiPCM2Gl6jDXvVy3Edn9YPwC0/BihfmeHtvYBEQQcSVrC+/DroWsGi/g0vBdbwW5tnC2iz5BVw8x9h1Abm334YcN+eq2L9yC7YXlR/AEysnFToWDbRtTfR0hV3BvrkKwwU0u1Myt5Ttt6fxem+sQa9t5SH/IGzDUfsFuhslfwQ674qeWi0+9uEdrGinAPcD/Cxj23Zc4Fhv/XewogFAB1sZ6+a1497GsdY7uGQr4ny0bmPRjvbLbezcDFcsU1/rA3RxCs+G53HvvE+fx4tKf51h2xY7ZuI9BSuxMSOXguvQm8f7ZRaurw+vm/7RmaHIOY+c51Cj3XtfvKfB7q0vlk76pM9Tbpboh3fX29MfrETTjgH3tGksQwPgrtuJi5XoGdGwnBiHV0ez3UYzMcy9jsbykAtzBaJ62e1GLJCqo9EOc/lGXpmHqH8fevQFZivhi6fwbBRMB9dxqRPmw/o30A27YI61XuwPSqufxYvRZ93s2SGOtd7Biw3xBXpUmg9fvYMHGetWQrPR6e23/nHrelEFwnxPaLA7zcRsBlnf14WPRaMtvkAtFbppYlVE29jVWE+2311QsNL5ftiGz2Jhl7the6MjymzHxz4cx5n2OSwOC+S1N6D31j+OM8viHNrx0qkUBcg/wLl4oCr/AH/YiJ9zQqn6QsFK8CMo4XmMetZ+Ow6l/Xp/nfC1aNvKKl7fm9hyASxKmeevUOycr+4c2k25dUiLANwtRL+liIgB9xRqYFlELLHb8uHt+Kxp5nwHuiJyVsfm+k1c2GOTkQ9Yq6mwsAe9HIlBlfEvVACn53EMSPai9aTW7/Vu/QhK9jfbxGnJ6HM4eQGn068NKHcsGm0PLRmwDANuGHjuDttvafL8BAdV3seDLjLzkC/X3kYXALr3B+78LC6fTb2ye8dWkoOd0/8XytUX2hLOpF46076OS8Hrydf9G/hI6ed5J9PVyihZ37xynfOhqs6hqsolOqQYcE+hxoUW5PhteWcDFmS0LqTCFd+EIqmwxif60UwKe8QqNfm/wfZLUyUc49F1+3ne06vg+VjVOVRVuUSHGAPuaRTmwEW35Z0NKzPvz7lqwAUgt+L5pwGCYbl+u+RsdFOvhLcO5Vby78eXTonBd0WM6MV+YP9dr/f7WO7uomlyGgty9q1ZkQoRV+5YOLoqgmE7fGjFJAYKsv1OgeM4uijSN+Jz1yeWKC1rQrY37qRfKqC6+m5fFWM80vP499PVhhmVXlamvuH5PPKuSZFzfjfnUBe9zLUM5ctF/85RkV56okOAAfdUCp9W6K7D9sXt+FHTSC1Kp3vv+Y4J/crghbmIuiSGa1kbUfDlw9EVqNZgb8fpBTG4bFV34I+4gFemfhaL4sGO6Kqxab78G/hZ+IQ/yLP6wJEwIISFK9GUXb4DU4mm9koqeix8U+k/gKMRPrTCNbCanh4sxtHFLWZlYM69OLbfaXB0QQze+1C/MSJwLC7Kve5uRIORxfSa8Rl/yqiqvpFj0oleAPzA+RgfXRmeUnJ0QQzo7NrDp/grXt8otzlrFp9IsXM+UuQcOi0ieqzb46e+LFJuj29jfWyuOtHhw4B7SokHCLjYuroBCxoupkeQ9y6cgKVKvRw7STWQEVck5mHt5adaau+1xBys4cA3WAakWg21miSCFTmMbGPqzTW0ZIhp1KR0HmzGXMgTdxzKRSXs5e5gPZo6UArzKHEKz66le5oqUGT/FiDSMwDXCI+xpIp5fDUN6aNR6Fj44SDJ2AM4ep83pCHHzcFG2Lhc68qQOcOFw95+o7mqL9dewnvRD794vu+QaeMm6Wjz3+FZGWKauviUmuFSerrBxlI4E8gHeK/2Ei7Xwuk15QKzsWSoqr4ieAa66vn+MVE/6A22zhL9qNgx3g63USzxebjL1FcMOsyYxSemyDlf6BwKRT9IXUMNz4/Bc6hMuRHfXodbZIwK0SHBgHtqicFnlmVlDzaDeIS414pfhGUxzZwtLtjlNdD2WtB6hcjQWja8jpi5IamOZkdMo7a7v7kLjdehe29gMfGFfwrHtB9gxdu7QZCVqDfRsVv9WFGWodkeOhcWUiuiwLFwoEtZ823X0VwTbSc5P3ckmkowD7bf/XccSkdMUyd+kE7KWbzo/aB3Zwk4hcXWG3itI2bnKK+a+h5t/givtaIf5QivDW/gNfsHw/9O43W8Zis4NrJRlKhv40L4o/ZqxvkVKnDOlzqHGm14tpb1+7OnVLkAAB/2uvghnx6yQXTYPXHr1q3H6RcBYH4+OWUTEZHv6FhVLTGjSdDODKSJaARHR021ILe8wbmvZ5xvKpAMF5od7G56UaIDiD3cRDSWeCx7DZIqnsio2Qy2iUoJ5793jdWRaVkzJ0pT2+1c/kQHFANuIspNljXYHnuviHaj0bahwYUh6XAOQtDth2lqcgseLw5EmRhwE9FYjbaYFqzTaSeefkdEZTTQDmwxzuAgnE91ALJ4OuZB2ByiKjCHm4iIiIioQuzhJiIiIiKqEANuIiIiIqIKMeAmIiIiIqoQA24ayTfzPMqbiIiIiIZhwD3FtsPHQ7f1PI+Bvo9t8120czxeOL/wqWEAXGtj+JPRdit8bDdj+skp1nZofznQU4+Ur/FkICI6UBhwT60b2DJuAwB2rL/D9pi5Wrf181g3OthJv7Erdagr4kG+8pDHc1N5D5yP8ZHyJi7rN9Jv7VKxtkMHm28qUGp6dT+YiYhoLAbcU+ssFlqnAADHtH+BM6MmN/U/xk8t8c9jrTfwWnAdl8LlxV1GyfVmR8y/zIcZTNh9bF/5AF1XBMaTVaDt0BRooB2Iec6DwIaWfnuXbm65EPepiIhovzDgnmJnmj/CpeA69Pb3cTT9ZtzNO2HP9iksqmdHr0uHQu62Q0RERJVjwD1tnHcTOdhieRfb6fUqlT+nVAyqVGD6PhxThxKtr+gwM1MZwvWUWNlq2D0/IFVmTYGiO0gW68MMyxqoom+Kzypm6jP5bOti/7fN+3jgxPPj38RH5v306oB/Ax39zUQefVt5N5HS8SDMrb5cO4/Po25H6+3E8W5nlZ1HgbZTeNtyE21HMX1xbHQx6FYMvM06DjmOcXgcdQdwovIUE36s/MFBvT4cXYmVW4OipB6jPaZ9OLqoT7Id56hv5dJ1EPs2sW3huIharQZxellQY+vXeseIiIj2AgPuWeV/3A+S1E744m18LsWCLWWvBsy5WF+VoBpW/9a1a8GQ0nmjPhw9XC/HPe7eur1XXLiWCikRINXR7Ijb8JYa/3s+zFUDLmS01nb3uOEd4zzeU+P58bfRNc4nB6T6H6MtvY3PrduJPPodt4N16c1dDl6tTq5tK2PLhl6TYFixo2cZkFKBcb5jLHSvKFCj8tx1XNVXe+W71pVYYOzDVCSoVjKVwnUtqFIsgK6rWJFFWXb6j8HBhgVAXoEaazxF6luVwTqIfate3e1BIyKiqjDgnjaN13v516+Febh7r3hOqesCsmbDCwIEgQdbAwALG/EYwLkqetvkFmwvKj+AJ1ZOcnSxbq/MqFwZcA0kY4sG2rYmevHCgM43V2G4gGZ30NxNtB2Rf4AV7zouBW9gMXypuxENdryPzuoHYdCqhOtdxyUvWvc2ulfEj5+jYarHpeAdPCvGowLaG71jfim4Dr15PHyjoLJtZ+S2leNaBizIaNmeOHZe2I7is90UOsaA67qQWx4CWwPgwrJcaHYAryUDcLF1U6wXHftkOwvLhQujV3AdzYuirPV0xO1swAKgXYz9WCtY32qEPwS0VqwOATy7BW0htlqj3XtPnF4a7Nj6QRCgM5ETg4iI8mDAPavq34ceBWm2Er54Cs9GwV5wHZc6e5i/q9notBthcFJHY1kE0V0vCmR8mFcs8cXfaaIR+67P+tp3RFQBu1cmRLnti6I3OxHJiwBDxNwqdNPEqoi2MZmxngpWOt8PBx+exUL694F/A92wu/FY68X+IMX6WbwYHRt3WmcLGbNtpWmwgw6a0YGuNxA2iZ7Cx1huYS0eJMotXGgAdSn6mQD0p7JMt7M6Gu01tORU0N9YhgbAXbcTPdRR3ZZj7adwfatkrcOO5ZDUG020mxNp7EREVAEG3DQRWjwyGUVewOn0awN8eF1k5p3WaiosAOh6A7fwG20PLRmwDANuGBhNhDw/+odLYtBqqnf69DyOAQBuYyfsgZ0q47atrIxpJBvtAEHQDl8vfozlFTXx4yz9f+Emttzsvw/UIWLzLnq/AxH+EEiklUS9yPEyite3GuJujgwXhiqhVlOgm6n8bSIimjoMuGmPhIFQpfbib9BB07jQghxPK3E2RDrMhcGQfSo02ugEnkgjkV1YhgFVyho4SkRE04IBN+2R01iQAbhbSHf0ilv1cWFPpJzMU00sncGBkI6uhnnDLciwoO7VQLYRvdgP7L/r9X4fG9+1f4iUO8a5ZT4ZNeqlXoQULzgcPBmllTgb1sBgycrrW1hdpJF0AgSBuLOTHDiaFu/VJyKivcaAm/ZIdDvfwpUoKvAdmEo0bVnS6QUxEG1Vd+DnCBR8U4FqAXJrDc1GE2ut8PPDI5DJqZ/FYjgAsqvGpgH0b+Bn4RMfIacfQHMcR6PUY2tzSvO7q1X0GOcT5YqLAbT9Yn04ejiYciDdJHyiqrsO2xfpJFnpKtXUtyDfhK6bcBIViJ4I2x84Gnda/NLFur3X0xcSEVGEAfeU6c/T/BLei4I1dLC+l1P9xebw7eWnWuqu5+8Vt+4B15BEWZIKwwVkTUM0YUek3hQD3FxLhSSlc2ZTc2774SDJ2KC63ucNaXB+7ok7DuWiEvZyd7AeTc0ovY0uIAazrg0OYD2zHA12jX1mF/NwT0XbKaDQMS6g0Y5mRFEh9coT0wRCzs7trzcvQoOLrasbsKDhYsYMHlXVt+j51rUMqFJ4DoWLJH5JJAZ5RqJBpa4R3x+D5RIRUXUYcNPeqTfRsVuQo+halqHZHjoX4vOZRepodsSUa+lgPMmBLmXNt11Hc00E+Mn5uSvSeB269wYW5fh0fKdwTPsBVrwfQRmM34DG63itpeDY6A08wPIe46IaaHs2Wlq8VFlMW9mJBm2miZ5xy7IyesAjVdW3gHoTa7bWP4eA/rb1BqSmNNrwBj5DRER76Ylbt249Tr8IAPPz8+mXiIiIiIioIPZwExERERFViAE3EdHEONBTud3Dlz1IdSIioqnAgJuIiIiIqELM4SYiIiIiqhB7uImIiIiIKsSAm4iIiIioQgy4iYiIiIgqxICbiIiIiKhCDLinkW9CSU8hVvq50URERES0nxhwExERERFViAH3NKo30QkCBEGAILChpd8nIiIiopnBgJuIiIiIqEIMuImIiIiIKsSAm4iIiIioQgy4iYiIiIgqxICbiIiIiKhCDLiJiIiIiCrEgJuIiIiIqEIMuImIiIiIKsSAm4iIiIioQgy4iYiIiIgqxICbiIiIiKhCDLiJiIiIiCrEgJuIiIiIqEIMuKeRb0Kp1VCr1VCrqbDS7xMRERHRzGDATURERERUoSdu3br1OP0iAMzPz6dfIiIiIiKigtjDTURERERUIQbcREREREQVYsBNRERERFQhBtxEOfimglqtBkV30m8RERERjcSAm3YlCkT3NQ4Np1FUTD/9TgYHem/KxXAZW3kf9roLAHCtDYxbm4iIiCiOAfcuPXA+xkfKm7is30i/RQdGHeqKDACQtWU00m+X5JsKlJrOAJ6IiOiAY8C9K/exfeUDdN3b6TdoajXQDgIEQYAgsKGl3x6i3uwgCAJ02pMKt4GbWy5EvzkREREdZAy4iYiIiIgqdPADbuddXK69hMvKx3iA+9jW3xT/r72Etv4xHqTXx31sm++iHa4TrbcdSw9+YEZlnMfnURel9XZv/cu1l9A27/fW39bD15Xk3+u9Hk9HKVDf6PNt8z4eOPE6v4mPYn+/NN+BqYscbbEo0EfkSfum3n8kvaIje1UfTny9mgJFd5C5KorXIc7R+zna+T6RVjTfO71tNSi6CSf+xx29955qAYAFNfU38uWiExER0aw4+AF3xL2Dn+nnsW710z92rA/wXiL3+j46ynmsGx3sxF7dsT7AuvQutmOvVS5XfcPXjfN4T43X+Ta6xnl8NCo2HMc3oUgqDCue9ODCMlYzAmkZ3SsKJMPqp0i4FgxpMD/Z0SWo8fXgwrVUSIo5GBQXqkOSbyoioNVsBO0G6ukVKjC4bYBrGVCvpvcCERERHSaHJ+BGB10LWLTfwaXgOl5rnRIvW5u9QPqB+Rdhj/UpPBuud8l7A4vh59fDYPdo80fiveAdPCvG0gHaG+FrYtGbx8M3yhpf3wT5B1jxruNSENUX6G4MBuf5+DBXDbgAZM2G18t59mC3otLjXLiuG1vXg60BgIWNeKzp6L0gOFGmJgOugWRcWrQOfb6pQDJEfYJd5VwXyfd2sGEB0Fqxugbw7Ba0hdhqjXbvPbGPNNix9YMgQKe5Fz8PiIiIaK8cooAbONZ6By82RCB8VJoPX72DBz5EKsm66E0+1vp3UML1UD+LP4yC3e79jBSU6oyub5yClc73caYOAGexMDoyHM+3se6KwLiT6B2uo9FsIzMeTKxbR2NZVKLr9SvriIgUdrrM9kVoAKx4dF6mDqlge5IDHHOz1mHHckjqjSbazX2oBxEREU2NQxRwn8KiGut1brwe9kb/CEodAO5hJ8wF2DHOJ/Kx3zPCtA73zh4G3OPqGyPP42jqpV25uQUXgLacP1Acv64Pr4vMnOVaTYUFAF2vn1ZSog5YX4VkuL0gfW810LY1yHBhqFKYa57K3yYiIqJD6RAF3JSXLyLjfVWqDisX0ZIBWFf250E8jTY6gSfSSGQXlmFAlfh0SiIiosOOAXfPCRwL87GPtcL87YHldZxJf6y0G9iy0q9Nh7okcqTj6SC7V4e0CEBO5jgnlk6zlzpSrg6n0ezYIthVlbEDK6tRF2kkHZFv3pIB17oyoi5dFNpEIiIimjkMuHuO48yKyNXeMf4CHzl5ptU7jqPR+D1rMzF1YNzRhTAH3A3zr/0b6Chvo0Qf7t5oLEMD4BoSFDM+pZ6Y9m548Dja6QUxOHJVd+CPK6N0HRpod2xocGFIexh0+yZ03YST2LDoCZUutm7GXg6dXhDvrdtlpy0kIiKiWcCAO+Zo8xwWZYhp9dRkHnd6bu3ImWUl/FcH61L2ukfVf4Fj8XWkt/G5CxyTw0B86oh8ZABwDRVSL9dagmqU/5lQb66FPb4qJCmdx11LpYHspg4NtL2WyKdOT00Ymwe7lztuqdlzYBdZF0DXMqBKUmKbJMMFoCErFT3qxU9u32C5RERENNsYcCecxYudd7CinQoD5Bwar+O1ltJLR8lU/z7O2UqszFNYbL0D/WI088gUarTDXOT4hsnQWmtDZwgZr45mR0wDOGp39eymDvUmOrYmBmkqg/OBT1y9iTVbQ6KqkMMpDdvIiLfD7Ut/hoiIiA6aJ27duvU4/SIAzM9PcTBIRERERDQj2MNNRERERFQhBtxERERERBViwE1EREREVCEG3EREREREFWLATURERERUIQbcREREREQVYsBNRERERFQhBtxERERERBViwE1EREREVCEG3EREREREFWLATURERERUIQbcREREREQVYsBNRERERFQhBtxERERERBViwE1EREREVCEG3EREREREFWLATURERERUIQbcREREREQVYsBNRERERFQhBtxERERERBViwE1EREREVCEG3EREREREFWLATURERERUIQbcREREREQVYsBNRERERFQhBtxERERERBViwE1EREREVCEG3EREREREFWLATURERERUIQbcREREREQVYsA9hG8qqNVqUHQn/RZNwAPzTVyuvYS2fiP91gHiQFd0sAXRQeV/oqD2Sg3KNbZyotnD76i9xIA7kw973QUAuNYGG+PE3cf2+m0AwI61ie302weCD1NRYbkA/PR7gHOthtorNdTCQCX9fyovCgL1L9LvTIEv9OmtW2E+7F+E18lNXieJMu3xOZ/+Lkn/P8EH4FpQawy69wID7kx1qCsyAEDWltFIvz1lfFOBMlMnzHGcWTkFADimLeFM+u0p88B8E+3au4V+GDi6BMOV0fLaaNTT7wKnnxLtK01+6nTqFQf6K+EFM2PpX8R9mG8Nu7CG771lDsT+/icKlFdmp+3MWn2rMh37oQ71u+F1cmn6r5NEcdNxDk1e/u8WAPUG2l4LMiyovJtfOQbcQ9SbHQRBgE57+r9Gbm65EP1Ms+No80e4FFyH3j6bfmvqPNi6jZ30i6M4OlQLkFtraGYE23HRRXDYRbKUzSswv0q/mO3ml7PVdmatvlWZlv1Qf6GD4P0AnZen/zpJFDct51BVcn+31JtYa8mApYIxd7UYcBNNlA/zigXILayNi7aLWLIRvB8MLO2nU+ud1KCddLH+y3RfNhER0aB68yI0ANaVwbugNDmFA+5oMOHALyFHF4MMzfTh8uGYOpRaDbVwUXQTTno1IGNdBYruZDQAB3rvb/kwdVGnqOzB9fMS5UZl1Wo11AY2VBD7QYHpp+qs6Ejvgv66gJ9r3Rz7N/x/rVaDagGABTVV98Fjsd9u4KPaS7gcX4YMmhSDKt9Ex7+PbfNdtKP1lXfRSW1Wf13gQa51X8JHA/v3XTGI07yf+P/l2ktYtwCgg/VU3XvrxjlXYbiAvKJiVLhdf2ox8/+LT436VB4LWP6uDHfj6vBbpWFOYe2VGtRNiLaTSlVRPkm3HR/OJzqU3joKlGtDzs3e532Y10Q+de2VGpRrJc/NUvUV/Hid39KH9Pzn3baiwnKjVJ9Xaqj92EqvJHzlwLymxOpQg/KWDide3zL7IU+5hWWkOQ2kMQkin16B+VVqHw89FgWF29eviwI9vQ8AcSzG7YevTChhmpYTlfmWCT/WjnuDQ4us2yu/yLFIt0lx/mSvW0SRctPrZp8X/WOc83zLvR8KXkvylFvmHMq5H4QC53xItB9lYjne5b5bGrjQkgHXwNXsU5kmoHDAXZSjS1ANK3HrxrUMqBlHdXBdF66lQlIyTi4A2LKh1yQYVuwTlgFpIFqtiov11VSdXQuGlJ0Xtr5agzSwrgjEKcttdFfPY93o9FM63A4+l7LzqburL+G9gXVFIL5XnA0LgIwVddTFDcDTbXEr/oVwvfD/Az3WJZz+zgpkWLgy8MVRnnNNgrqROjc3VUgZeeEAgC9t6K9IMDZjn9g0IKWDkMrI6P5EgRSv810LxqXBc7PwtuXi98u9m34vzYf5lyqMzeQtbveuBTWjvvlVVW5RLtb/MrWPhxyLQr4yoVwS29fnwtpYTQV6Psy3JKiZ+0EEinHdnyhQozLvruPqtdXe33BT6Vr51y12LAbbpDh/VDu9ZjFFyh1cd/R5sf6XtYzzLb1/i+0HIO+1pES5OeXfD0XO+YiDjU1XtNufpMsrqeR3S11dgQzA2tjN3qJRKg64HWxYALQWvCBAEC6e3YK2kF5V5L1Cs2PrerC14b+6XMuABRkt2xPrezY0ACg9s0gD7d7fDssaw3UBuVdnD7aoAAbbrDu4bksG4GLdLnGaNdq9/Sn+pgY7to+DIECnZEqDo6d6+dPLsB9AY53Fi8F1XAqu41LwBpK/w7PtuMAx7Q28FlzHpeAdrGgA0MHWwP69Pbhu65QI2u2MnuhxGq+H9bwe/k0FK726i0VvHk99yIfXBSCvYFy8XdimmuiFEcuQL5JvNnFxCXB/YWcfp/ACHLwfwF6CaDupVJXexRqiV0jdFGktXm8dD/aSDNw1cDWjZ8bdDM/NVz2x/uXwfCozm0XR+gLifLvrQu7V2Qs/a2EjXt8S25bLF1dFuSdbsC/36+m9OuSqckLr76th9S2zH/KUW1gD7V55Oa+TdzH+WBTiw/xLAy7i5YZlLyevLP4nqzDupo9FeIzhwkgFm+5dF/Kyh+BVTQRCmy60VwN4y2L9rS/LrZv/WDjY2ASw1IptVwDv1Ra0p+LrFVWg3MLnhTt4jMN9MJDelns/CLmvJXnKLXoOFdkPRc95AEADy0syABna90bfFa1cXcWKDKDrZX9v0K5VHHCHrHXYsRySeqOJdjM5yEb0DGqw241Yo6uj0Q5ziwYj2DDI7KAZTQNRb2B5VNuugmaj06tzHY2wAl1vsMnKLS+5bpg35a4PCYwI0N6A3j6Lo4CY3WRZAQDseINB9LHWO8l1m+ewCGBn/QYepFeuxE1suQAWpf29cAJofEcb/EIoyflleG6+nDo3Xw7PzV8OOTff76D5dPiJbzawvJRep2JLNjq9OtfFPgHQ/bJ/tpXbtnF8mD8Jy/1hE41v9t/Jbhd1NF9u9/dV+FpU3/KqKreEHMeikK9srN9NlwtR9gttNHv7PJq6MH0s6mi8vIbWyYzA7WQLa/Gg62QLF54evFUfvZdv3RLHYnMd9hex782nm2i/MIHBqTnKLXNeyMte8hi/EH6/JX74l9gPua4lZcodL/9+KHrO9zVe7iB4v4N2ou77oQ5pEYC7hZvpt2giKg64G2jbGmS4MFQJtZoC3czK3w57BjPykGs1FRaG/OrKmLKv0Q4QBO2B16uiLef/S4tS+oQ6jYUxA4j3g9iHI5ZOc+xFZFIWl/PPYnJMSvc4n8CxKdy/pWQOmhzRzp++gNbJ7C/GYnx49yDOzYEe9vDcvJdxbmZME9d4eUydJ0z7zri/VHLb8jq5gIyJuLJ95UB/K56LPD73M5eqyi1o/LEo6MstuLnKvYmtu9ntEahDOgEAXXixtAf5u8mexvT/49Lvpf+fkPtYNNB+Nfze/LEU5qUPy7MuIm+55c6LwRzh01g4mXoJRfZDKOPYZV5LipY7Von9UOScp0On4oBbpD50Ak+kkcguLMOAKvEJjkTVqqP5Pa3QFIE0KWGQl1eYi2zdjWefTkBV5U4B/8tu+qXpVvRYPN1G531PpHucdGFtGFAvZQzELKqqcvMquh/yqqrc3Aqe83QoTSzgdjZGXQDrIo2kI3KXWzLgWldigwXDWxlyMtd7v3pV94xvYz1nCsLo/QvRS5PuciipuhzuPebfQNcFsHg8TDMZbnvjTvqllDt4MHajwzsWWXdj9sPTy9DgYv2X424QJnv4ksJewJPJvM/E8sO9PjdH1beIqrYt7Nm7O3hrVtyiTr1mh7nIy/E80SDMCx5l9H4oX+70i1I2cqekpNNGgFgP5iKkWApAFcodi7pI9/hhgOB9D62T6YGYZY0rd0LnRZT2c6L//VZuP4xXvtxR51CR/VDsnJ9O0Rgk9tJXpXDAXZfEhc7aiIIuH46uQI3NFNLjm9B1E44fvyhGT3F0sRVrmacXxODIVd1BYvUDJbZhvgN9VVwk4mkphfZv6PRCNPhy2FRFh0Usr9u/gY9WP8BOKi3lqDQPAOhufBzmdd/Htv4m1i3xqPksRxeiwZfjcsGjHLh1lBkHO3kNXFiW4W5cwXr6rZB4KIKL9V8ObzunnxIDhFavOfCHfjntjTz1LaKabYtSFWIzxXzlwHwrmoos2+JTp3uBif+FCf0nw7+oi+yHIuXOjKeXRX7whgTlk/g+ENOy9YPHKN/XgpqYys2Hcy0cTJmRslCVXMfiKxP6NRPOV6nvze9mDMQsokC55c6LWLlfOdDDQa1ZaT+59kMJRcrNcw7l3w/lznlg8tMCllagA5DKKRxwoyEudLAMSLUaajVJBINydrJs1zKgSlKih1QyXAAa4unP9eZa2POtQpIGe1X3JAMlNrd1L3fcUnuv7XZea0uN7QdJheUC0GwkHmZZcP8iFqS7hhp+Znf1rSyHOza39eXa2xBp+2+Pnte6gK56vl++9Lbo3dbewIuJ/bskZkexPsB7tZdwuXZeBNuyeNR8lihI3zHeDj8zvL5i0GzJmWdGyZylJP5o92z176xADmcQyBL1FLobKqRYufG5aOsviMFl7qYK6VLxOkxSnvoWUdW2NdQW5DAgrL1SQ+2SCuMuIC9pSJ/J0ZPgrB+H675Sg/RjA9aQY4ac+6FMubnE5jLu5bLG2mfZY1GMyEfGwD6QoKbuBjZejma1SK236QInxYC4qhU9Ft1NA+ql/rq1V2qQNsLvzTHTu42St9wy50V822qXVLFtS3ZiOrqi+yGvMuXmOYeK7Ici53xfBdMCluTb6wMdgDRZxQNuNND2WtB6LUiG1rLhdcSo3YR6E2u2looV5XBqvPTgqTqaHTEN4PDGeYDI4X4beHR8gf0babThDeznQ04+hcXWG3ht4NHxZ/Gi9wMs9vZVuF5HzGiSqfE6XrOVfAMwGxfED0djxINn9lI4ReBQT7fhvapBzhrc1FNH84diKqw8u6BSuepbREXb9s0mOq+2+vU8KUN71UNHTc+HKh6P7i3Hv5RlMb3aq+ILPFOO/VCq3FnydDvMRY5vjQxteS02SwnENfWyjdZScj15yYb3w/T3UDUKHYtvNrE2cGzD9dMDBYsoVO4uz4uTMrRlG17qx0yh/VBAqXJznEOF9kOBc75vWqYF9GGvu4DcwoXSDYzGeeLWrVuP0y8CwPy86NWj3fNNBZLhQrODZG82TcQD8028Z9zGon092Zu9XxwdNdUS00CWnAudiGgW+J8okDbE/OPjHq5C04kxyt4o0cNNRCM12rA1wDVW+RRRIiKaXr6JVcMdTG+liTvAAbcDPZUHPnwZ8sQ+opIabRsaXBiSnjHvPBER0T7zHeiSAVduZaS30qQd4ICbaD810A5skYvPrBIiIpo2dQCyBrvsRAhUCHO4iYiIiIgqxB5uIiIiIqIKMeAmIiIiIqoQA24iIiIiogpNZcDtm4p4UuKEHy9ZVbk0m9geqlX9/nWgK8NmGBr13uFT/bGgg4ptZ3pUfyym/bo57fUbbQoD7vCJRwBca2OCO7aqcvPImKJwIidMVeXOpuhi1F+UEfNg72d7OAyq3r8+TEWF5QKZz0P2AbgW1Mqm/LyPbfNdtGsv4XJs+aiaP7ZLVR+L/bVtvonLtZfQ1j/Gg/SbtEsHu+3snzLf3VUfizHX1JBzLXy0/bXJ1iBXuUWu674JpfA+rtYUBtx1qCviIaqytlz+MbYDqir34PJNBUqehj2T8reHg7wfqtu2/Pu3DEeXYLgyWl4bjaz5rOoNtL0WZFhQK7jIbuvnsW50sJN+YyrlPxbVtYeq3MCWcRsAsGP9HbZHBApURv62Mw1mr/0Wkf9YlNkPY6+podNPjX3IfSm5yq34ul61KQy4gXqzgyAI0JnwROxVlTteA+0gQBAECAIbWvrt0qoqV7i55UL8np4lGuzePulg1JPV87aH2dwP+VS5bXn3b2GODtUC5NbayOOLehNrLRmwVEz02ux/jJ9a4p/HWm/gteA6LoXLixPe1EnJeyyqbA/VOIuF1ikAwDHtX+DMqPZApeRtO9Ngdtpvue/uvMei8H7Ie02NkZ86nX5pIsaWm/e6Xm+iU2IfV2kqA24iomw+zCsWILewluObod68CA2AdcUcdZe0mJt3wp7tU1hUz+Jo+n3aU2eaP8Kl4Dr09vd5LIgKK3ZNnQaVXNf3QMmA24ejK4n8GEXJeoS1yFNSTF8cVL2fY6vo6R1VNKdJ1CGZsxst8dzd/OWKHGAFpu/DMfX+9il6di6w78DMtR+mRWq7wuOQqK+j995TLQCwoKb2nziesypneyi1H9L7V4GiO8l2HuaV6Q767Vcx4cfOj90NiEnXYRLHuJrzuH++AX6e8w0AnKswXEBeUXM+Ga2BCy0ZcA1cza5Gdfwb6OhvJvK828q7g2kPzrvifeVjPMB9bOsiJ3n3eck5j0Xh9oCMdrbHbT3aZ4nlXWyn1wOwrYf70ryPB0487/5NfGTeT6+eWzRmZGATwv05fp9lnJs96XUz9i9Q8NwsImfbKfi9WeScz71/S7XfItLHIvu4Fdm2YnIei7L7oeA1tf7UYvqliShW7j5e13ehRMDtw1QkqFbyloXrWlClIYPUtmzoNQmG1f+EaxmQshpNLv06TJ6L9VUJqmH1t8+1YEjpfCgf5qoKI3M/pNedDo6e2q7wOKiz1GKn2OD+deFaKiRl8Iuve0Xpt193HVf11d754VpXss+jHAbrMMFjPPHzWFhfrUEaON+yryXOhgVAxoqa56tBqKsrkAFYG7uop/9xP1BTO+GLt/G5FAv4lFhw7H+MtvQ2PrduJ/K8d9wO1qU3swdXunfwM/081i2RkwwAO9YHeE+/kVhtGgy2s71v60XtGOfxnhrPu7+NrnE++1hUYHCfDT83B9cdvn+B6s7N/PJ+bwpFzvn9Nngshh83zNi2ocw19ek2gvcDdF7IuX5eBcudyHV9jxUOuH1zFYYLQG7B9qL8GA+2JgNwYWQ0QtcyYEFGy/bE+l6YT5MYaVsgpyn8RQa5BS/6TFQmNNiJ3N0C5YZcF5A1Oyzbgy0qi4Hjuqj1t2ncuvvOwYYFQIvtsyCAZ7egLcRWa7R774ltiedEi6VT8raTo6d+paeXYV8mE5WzPRTdD2EOHHrtJmoP2b/CXdeF3PIQ2BoAF5blQrMDeC1xHm3dTK6fT7XHeOLnMSACifT5Fu6DdTvdGnx4XQDyCvJ+NwAA6ipWZABdbw/aFwDcR2f1gzCwU7DihTne3hsQfTi30b2S1XPdQdcCFu13cCm4jtfC3GRYm5k9t+PlPBZF28M0tPXG6728+d5+ykP+QXg8omMBdDf24gdNznMTxfcvcp+bReRsOzED5/HQ78Ii53wORdtvIQWOGzD5bQPyH4tS+6HkNXUa7Pl1ffcKBtzRtDQa7E4zNpK1jkZ7DS3xcyPjBA+D4OgD9QaWh7aa8XyvCwDQLjb7t0Dq4S0GdOHtdu9rNjrtRlh2HY2wst1EwXU02+3+NoWvRetOLWsdduxeWL3RRLs5egAGjSd6CTTYvXaD8LwIc83S3zrpfDm5hQsNoC4Vua02RGXHeLLncURuecnzLczPc9ft1IX0JrZcAItSrluffXVIiwDcLZSJ7QAA9e9DjwZH2kr44ik8GwXTwXVc6oQ5xP4NdMPurWOtF/sD+epn8WL0WTd7Ro1jrXfwYuM4AOCoNB++egcPMtbdL1PV1gtRsNL5fng8zmJhAm23sBznZuH9C1R2bhaS63tTyH/OT4kcxy0yW9tW9po6DSZwXd9jBQPu8OBkTkkTbnxWwJuxfqMdIAjaA6/nEV2orY1Yj6jv4KrhAliEtMuWoy3nrJXvQFdSeeQieWoKNdC2NchwYagSajUFujmYh1YlccxHLJ3YD6iZEvYSZOTM1WoqLAz+Ck/ny6X/X07Fx3jC53FkceCEPY2FHDNETa3EoEoRPPecnscxAMBt7Ax8S6TW7/Xi/ghKehftm2lp6yXI8/s4qDLvuVl8/wLVnZtF5P7enKlzPu9x65udbaO9VjDgnhKNC2FvugEpuhhJ4cUo48JTCd+EIqmw3Hhm15RrtNEJPHE7THZhGQZUaRcDl2j68BgTTSeem7OJx40mpFzAnZk2Ev0y330P81jRqFo5/rNRhtbyEIyZn3JSnKsGRBp5PM8uCPMUp1ld3A7rBAgCDy153MCljDsWJU1HDndZo/ZDeHcnPqYgvexp7/3+HeOJ8G2sZ97mDHuKsnr4RoryFBcwZobXyRjRi/3A/rte7/exPalMGaPaw7S19enjbIiUx2zjzs1Dun+HnvODRu9fjGm/ZY07biMU2LbJyrMfyl5Tp8EeX9cnoGDAHeWFiaf89A+QD0cPB1PuQQ9zlON2cW0NXm/gZgftgQEB1VuUTvdOIt8xoV+Z0pQS34Sum3D8+GkVPbkqe+DS6YVosEfWdFSHR579cHpBDGha1R0kdvHE5JhKbWaPcewv+w70VfFjdvAWdZSzt45C44/2+guvfhaLYV9AV41NA+jfwM/CpyJCns6HtORpD9W39dkwmNoopqrNnD2rwLl5OPbv+HO+0P4N5Wm/fdVcU/NsW9Xy74eS19ScnGsKaq/UoIx6XHtZe31dn4Rbt249zlqCIBiy2I814DGyFll7bGetq9kZ5aQWWxssL7bILa+3rteSB97vrSdrj21vd+VqdnbdstYdtiTKKFCHQkuRcr3WYzljHbGkj9vo8kvXt+JFHJMh2xItQ7Zp5LYN+UxyXe9xSx5cJ1p67SE8Dr3PpttW+P+BNpg4fkO2sbJjvPfn8dC/ld5fOZah53XZxf6Lx3+OP3385/jfH//f8WtNap3/hD8N10svqc/lKa/MUuBYjPvMnrb1HMtXrf89Y7/GFvmjx1+F6/6/2uBride1nw+Un28Z8l0oi/ZW/vqbc//G6zDsfCm7DGkH0ZJ1Hg8cx/TxLnzOF9i/Y+qdue6Er6mFtm1IPaMlUd8i6475zKh1M9/b1WI/1v4tHuPf4jH+rfy4dT/9/u6Woe0uc6noPCm4FOzhhhhE4Nloacl0Dlmz4XX2ZoBG9JQhAEhklWDv5sGuNzvwWhr6fz7cB3Yr9toUqTexZmup/RXWedjAmkYb3sBnDqFc+6GOZkdM3TVytbLqKlbCc04edhfpIBxjWYbWsuENSw0Lx2+4xtWc53g4s1I4M8aeabwO3XsDi3J8yrpTOKb9ACveNA2CTMnVHipu6zOjgbbXQv+rMGy7nf73U0+hc/OQ7d+h53yB/RvJ1X5DVV1T44ZuW8WK7IfC19S8Gmi/OvRI7dI+Xdd36Ylbt249Tr8IAPPz0ZRU00Y89MZwNdheOzY1YfieLsGwAM0OsNdtnPaXbyqQjEXYeS6EtO/E8RJzMhc6Vx0dNdUS02+NSSMr/TeIaOIO8vk409tW4JpahP+FjtUfW3ChwX5/ct/Lxfe1A72mwtLsPRvnl6VED/d+C6cmBJBO8/f9m9iyAEDGwqxk0RNRMY02bA1wjdXRg5Z8E6uGC2h2zosyEdEhlPeampNzrYbaKzVIPxZP3NRenVywPcvX9RkMuKM5LS0YkpSY5UIKpwaUW2uxJ03OCgd6etaOoUv1KTOzKz5/7fQ+Tpd2p9G2ocEVj47OOsa+A10y4Mqtvb+dSzRV+N1C4429ppYgn9RgXw7Qfjr9TklFruu+CaXXrsNpo/fZDAbcsfy2VH6SLItHrU/ylggRTaMG2oEt8juzTvc6AFk8ETfrbSIiihtzTS2g8XKA4P0AnR+20fhm+t1dmPHr+gzmcBMRERERzY4Z7OEmIiIiIpodDLiJiIiIiCrEgJuIiIiIqEIMuImIiIiIKsSAm4iIiIioQgy4iYiIiIgqxICbiIiIiKhCDLiJiIiIiCrEgJuIiIiIqEIMuImIiIiIKsSAm4iIiIioQgy4iYiIiIgqxICbiIiIiKhCDLiJiIiIiCrEgJuIiIiIqEIMuImIiIiIKsSAm4iIiIioQgy4iYiIiIgqxICbiIiIiKhCDLiJiIiIiCrEgJuIiIiIqEIMuImIiIiIKsSAm4iIiIioQgy4iYiIiIgqxICbiIiIiKhCDLiJiIiIiCrEgJv2hW8qqNVqUHQn/dauVFXu4eBAV3Tsx56r6rhVVS7tX1shIppFhyDgdqDXaqjFF3757jMf9roLAHCtjWJf2o6OWq2G7EO4i3KLGFmHPKaxTfowFRWWC8BPv1e1qo5bVeXmUdUxrqrcgnwArgW1xqCbiCiPQxBwF+ebChR+kVSoDnVFBgDI2jIa6bdLq6rc2VKm/Tq6BMOV0fLaaNTT71atquNWVbkHV+62U2+g7bUgw4K6HwE/EdGMOQQBdwPtIEAQBAgCG1r67Qw3t1yIfjGqSr3ZQRAE6LQnGwZVVe5kFW+TRRRuv44O1QLk1hqaex5sC1Udt6rKHa+qY1xVuUKhtlNvYq0lA5a6i7s9RESHwyEIuIloOB/mFQuQW1jbr2ibZla9eREaAOuKufeZSEREM6REwC1yCBXTF1/WuhiUJAYmZV10fTimDqWXc6hA0Z2M9ZCxrijTSa0cDYQa6FUJc2tF3QoKP1ur1aBaAGBBTeVKliq3ckX2mQLTB/z4+oqO7M1KlzvquAHwnURbqNUU6AMFF80/DeugxNYXByelZLm5ti1vHaqUrm/GMS7bfp2rMFxAXlExOtz24ehKsg6KPtDOil0fShy3RBuLL6JtC/nL7Z8XqX087LwI2/n4/TAtKmw7AIAGLrRkwDVwNXsXExFRuYA7tGVDr0kwrP4NSNcyIKW+2BxdgmpYsduULlxLhaSkv3yz1hVlqrySD1V0n62v1iDF13ctGFI8WBEGyx1+3OCbUCQ10RYAF5axOlBufn6/DrnvceeTf9uqq0MRg/UdfYyLcDYsADJW1FHhtg9TkaBayXQD17WgZrQdIP/1Ib9+HSbPxfpqah+7Fgwpncvsw1wV7XxwP6TXnQ5Vtp1IXV2BDMDamFyZREQHTemA27UMWJDRsj2RT+iF+YTx2QDC3FBoNrxe3qEHW8vqEXGwYQHQWrF1A3h2C9pCfL2KNNq9v2lrAKDBjtUjCAJ0St5yd/R0b1xqGQj08iq6z1y4LiD3jocHuyWLgMOO1aDQcfNhrhpwES83KnsxvmKx/FPnqqiD3ILtxbct61NFyi2wbYXqUJWcx7hU+/XhdQHIKxgVb/vmKgw3vR/CfQYXRkbwluv6UOi4iZ54yLH9EJUJDXbQieWfFyg3NHBeiMpiIIZc1PrbNG7dfVdl24mpq1iRAXS9ktcxIqKDr3TA3fuSi6Y0qDewnPpmE71nGux2I3a7uo5GO8z7y/qGstZhx+531htNtJt7PeBpxhTYZ3LLQ6d3POpohDmY7rrd+7IsdNx8G+uuCGD75YbrN9slB+GFecXQYHeaiVkzShUXk3/bqqtDKQWOcX43seUCWJRGbFM0tV56P9TRaK+hJbo2M3p3x18fivC9LgBAu9js17UepjOgC2+3kV6i/dbRCCvbTRRcR7Pd7m9T+Fq07tSqpO3E1SEtAnC3cDP9FhERAbsKuDOm2Wq0AwRBO3w97D3LyAes1VRYSPeINNC2NchwYahSmAM8mIs8i8R+GbF0YkFEIcX32aKU/kunsSBmTgsVPG43t+AC0JbTrWEC5AWcTr+2KwW3DVXUoajix3iywqA843zvBVpZAW/G+snrQzF18YdgbcTuBvkOrhougEUMNOuCcrdf34GupPLI9zynP6/9bjtERBQpH3BXodFGJ/DELU/ZhWUYUCU+JW6kfd5nUc/jZIVB3r6ahjqE9vkYT4XGhbA33YAUBbpS+CMpI7ivRDhWwdrPhP6i2HaIiKZChQF32PsVz7lML5k9u3Vxy7MTIAg8tGTAta5kD8xKcTYmGfxl9NqVVF0Od6T8PuulhPTSCoodt6jnMXnrfbfCXveMW9QiJaSsIttWVR3KKnqM87TfcBvTvfpZMtNGojsGu+9hHiuaTUWO346RobU8BHs0x7ZzNRyr0Irn/wcI9jSnv4wq2k5cNBZgv+8GERFNrwoDbuD0ghiItqo78MddwH0Tum7CSawYPSnOxVYs6hm8vSymC5vUDAanRaSFdXvYVHFTosA+64ut6zvQwwGP8VvqhY5bY1nkgBsSFDO+v8R0ZMO/1EeJUhUsXIkK8B2YSjRtWXn5t626OhRS4hjnb79R7u064mNmk6Lca/FEwcTx1cPBlHvQwxzl3l9cW4PXG7jZQbvcIIFdWZRO935w+o4J/cpeNogCKm07MQM/2omIaMCtW7ceZy1BEAxZ7Mca8BianfFeevEet2Q8BrIXzY6t67UeyxnriEV7bGfVIb3I8mMAj+WW11/X1gbXiy2Jdcd8JnPd/VwK7DOvJfZN5jJwLAsct2D4/gLkxy0vz3piSezfIdsma9pjOV2HIuUW2bYidSiyFKnvkDqIJX1ejC4/s/2G62a+11uGnG/AY8jpOhS4PgypZ1Z9R7VfWdYe2yXbWVTuwLHM2C+j6jBQRoE6FFqKlFt12wmXofuQCxcuXLj0lkp7uIE6mh0xfVhiXF6WehNrtobEHWPI4VRd6YFWDbS9FrTeujK0lg2vI2aa2LVGG95AXaZQoX2WQQ7328At+QLHDdH+akEbuN2/i0eF15vo2K3+tskyNNtD50LmfIcFFNi2yupQQJljXKT9hrnRrnE1I2Uk0kDbs9Hqn3D9OnSG1GHCoicaQhyGhL2aB7ve7MBrabF2E+4DuzW+Le2HqtsOgN4sNnILFzILJCIiAHji1q1bj9MvAsD8/Hz6JZphvqlAMlxodoCB+JoON0dHTbXElJGlfyFVSTz0xnA12F47MUUj4MPUJRgW2Lb3Aa8rRET5VNzDTURTr9GGrQHurp4MWqX+jDHp4Z2+fxNbFgDIWOCIvb3lm1g1XECzGWwTEY3BgJtoVxzo6Vlnhi7Vpz2U1Wjb0OCKx5lPXdAdzRVvwZCkxD6VwqkB5d2kL+2bGW47vgNdMuDKrYyUNCIiSmPATUQiTzuwxbiIqQtcY3n3qdxiWRaPWp/OVJgDrA5AFk8f5Z4nIhqPOdxERERERBViDzcRERERUYUYcBMRERERVYgBNxERERFRhaYy4H5gvonLtZfQ1m+k39oHDnRlymYIyOB/oqD2Sg3KtcnWtKpyZw33w/TwTQW1Wg2KPtljUVW5NBvXUCKiKk1hwH0f2+u3AQA71ia202/vKR+mosJygdT0vwAA51oNtVdqqIVBWPr/e8eH/QsxUbG7uTHBL7aqys3Dgf5KuD+jZc/3a2Q/90Mx6TaY/v/sC59sCMC1Jnksqio3j4zpAScS9FdVbkE+ANeCOm1TGxIR7aEpDLiP48zKKQDAMW0JZ9Jvl/TAfBPt2ruFAnhHl2C4MloDT7cTTj+V/fxj+amsJ3D4cK4pUGIBpHLNhPNVer0y6lC/K+oiLy1nP7K5lKrK3V8iCC3y5V/NfvA/UaAUqsd4xdrkLKpDXQmPhTa5Y1FduQeXbypQ8gTR9QbaXgsyLKj7EfATEU2BKQy4gaPNH+FScB16+2z6rdIebN3GTvrFURwdqpXvgRpRMDMs2AF8mG9JUDddhA/MAwC4mwbUSzm+sHKov9BB8H6AzsuTDRWqKne8BtrvBwjeDxC8b0NLv73HqtgPN79MtodJGt8mZ1e92UEQBOhM+IErVZU7XgPtIEAQBAiCSbb1qsoVbm4VaL/1JtZaMmCpYMxNRIfRVAbc+8+HecUC5BbWxkXbOfifrMK4C+BkC/blKIj0YC8BgAX1wNzuJyLKVm9ehAbAumJmZegRER1ohQNuMaDxTXR84IH5Ltq1l3C59hIuK++iM3AVvYGPai+hbd4HcB8dXQyGFAMiP8aDjHWj9y/XXsLlIYMm+3W4j+1RdXDe7ZW1bgFAB+upvyHqluJcheEC8oo68ilq9acWM/+/+FT8Uw6ubrgANNg/bKLxzd7aaLzsoXUSQCIvWOQuK5/4IvC/JgbrRSkoyV1cNM9ZpLUk1u8tCsxeekv+csVgQgXmVz6cT/R+ysxbeqy8mK8cmOnUmrf0CaXWTFr+/SCk9kFW2tAXeu89dRPiB1fqb4hjP0gcOwX6F+l3+vK1yar5cHQFSix3WFGyHhkvcowVM2zruhi0KAYuZrT1QvnIog6J9XuLArNXeP5yxaBKBabvwzH1/vYpeqy8+AccmLn2w7RIbVd4HBL1dfTee6oF0X5T+08czywNXGjJgGvgavYuJiI6sAoH3JHu6kt4z+j00zTcDj6XRCA+YOsGPqqdx+eWGAwJADvWB3hvSECdz210V89jfaAOxfK0szgbFgAZK+qYIOXptkgzeCFcL/x/++nYOl9swAIgL1/IyAuNcoMtbKSDqC9t6K9IMDb7N23dTQPSyIBvlH5ay+S5WP9LCeqG1b/FfNeCMZAu48P8SxVGOrXmrjWx1Jr95FxL7YMobciexJY52Nh0AbiwfpIORmPytMlK+TAVCaqVOsauBVWKB7oxWzb0mgTDirV1y4A0JPAdr1+HyXOxvipBNWLH2bVgSOn268NcVWFk7of0utPB0VPbFR4HdYLRcV1dgQzA2phcmUREs6BkwH0bOy5wTHsDrwXXcSl4ByutUyIItgd7jHesD9DFKTxrv4NLwXVc8t7AIgAkZiE5ixeD6+L9IHx/jIE6aADQwVZ0LW+8HpZ3PXxPwUrvb4hFbx5PlAn48LoA5BWMi7eLGNbDmO6RjLibBizIaL3qiRSUy2EOZqI3vECe8xdXe2ktXvSZqExosN/voNnrfS9Qbsi9C8hLdlh2P11m4IfECa2/TePW3XdF9oODjU0AS7H9+34A79UWtKdiq4UBcPB+EG63Bju2fiJYTmhgeUkGIEP73ug7L/vJN1dhuADkFmwvyh/2YGsyABdGRvDmWmFbtz2xvhfu68RsIQXykcM7VJBb8KLPRGVCgx10YuMyCpQbcl1A1uywbA+2qCwGYshFrb9N49bddw42LABabJ8FATy7BW0htlqj3XtPbIsGO7Z+EATojErDq6tYkQF0veE/GomIDqCSATdwrPUO9PZZHAXEzCLNc1gEsLN+I5UqgjDQ/RGURhjc1s9iIc832zjaG8k6LCsAgB1vMOjP7ya2XACL0kSCGv/LbvqlTN0v018/YRD8dFiLbzawvJRapYCoHtr3mv3t+mYDF5ZlAF14u03pWLLRebkRll1H4zviACe3q47my+3+NoWvReseCJvrsL/ob3P96SbaLwze2yij8XIHwfsdtBP7b5pEU+tpsDvN2Mw+dTTaa2iJrs2M3t0wCI4+UG9geRdNwvfCtn4x1tbrYToDuvDSp1pRmo1OO9bWw8p2EwXX0Wy3+9sUvhatO7WsddixHJJ6o4l2czLtV6hDWgTgbuFm+i0iogOsfMAtpXuGT+DYsAkRMqb3O9O+jkvB6wOvF7G4PLlZTKoyrAc7baAHPGP6ucbLAYL32wOv5xHVw/plLB3hqyi/fBFSr3e7HO07OWv1lQP9rVQe+Y+t9FozqIH2qxpkuDB+LIlc608mNe3jrAh/rGZOqxcGWlkBb8b6jXaAICjZ1sUfgrURa+u+g6tG2NZ3+XtFW85ZK9+BrqTyyEXi8xRqoG2H7VeVUKsp0M1U/jYREZVWOuCmYgZ7sIW8PeC79vSFcICmASkKdC+psJAd3FfiKxPKJRXW3Spya6fA02103vdEGslJF9aGAfUSn0655xoXwt50A1IU6EphW88I7ivhm1AkFZY7Q2290UYn8EQaiezCMgyoEp+8SUQ0CZMLuP0b6LoAFo+HKR7T6A4eZMe9MaexMMkcw6cWIANwf2FnlNefwWS56kFtYQ63fDJ+G0KGtuwhmODc0qM4tgEXgLwc5XqHy6tTfpu9kLpII/mhyE9vnQTczSvZM7YAk0nnmTaZaSPh2IgJ9DCPFc0yJKfaestDsEdzbDtXw7beinK9w0UkPk+xukgj6Yic85YMuNaV7MGuQPYdi5GiMTILOCiPYiIiymMXAXcsT9q/gY9WP8DOFKd5HF2IBnVm5ZjHRTmG67ALfZEM8c0mLi4BuCtmGImnc5hviV637BlMJsv5pQVAw8X/dQ1eby7wDtqZA/SqtfjU6V5urf+FCf0n03qbvYCvTOjXTDhfJfN4xSw0Lra+jL0cEg+lcbH+y1i7GCHPtIBlRNPn7b4nM8q9Fk8U7G+TD0cPB1PuQQ+zmGVIw8W1NXi9gZsdtEcN5qvIohRr644J/cqUtnXfhK6bcPxU+10J229GwvXphbD92vnaLwDAt7E+wTEyRESzonTA3VXP9+ezlt4WvdvaG3ix7LdpbM7sy7W30QUA6+3R82UXcFSaBwDsGG/jvTHzcIuBTS7WJxJxAw21BRkANtVEOkc0a8ha2aA3Nqdz7ZXwlvmmmjmfswjuLKiXJEiXUvM+p+fBLlBuEdFTD60fS72ypB8bsO6m16yuDn2D81/XXknNs12wDt1NA+ql/rbVXqlBGnEHI8qrdzdi7SKjXCHntICFOdgIp88b3ZOZT6MdzTCi9tM5auEUfbIGu2wPc2z+51otPBaWmjn3swgELaiSBElKzRGdnge7QLlFiDoAlir1ypJUA5kzFVZUh6Lldi0DqtSvb61WgyR+JSErbT3KlXeN+LEeLDfOt9chfndlFEhEdICVDrgT5FNYbL2B1yb4KPaJa7yO12xl+MDOuDAH1DWuZtwaL+GbTXQu22gtpdM5bHg/jM2kUKH6C+IpbwAgn0y+t1fzYNdf6MBb1sSPDwCALKYSfDX8QTLLvtnE2qtaat+G2zdsoOvTbXgDnxmmqmkBxWC5yWmg7dloacm2Lms2vM6Q/TBh0RMNASCRVYK9mwe73uzAa6XaumbDs6e0rdebWLO11P4K6zxs8GqjDW/gM6OEs9jILVzILJCI6OB64tatW4/TLwLA/LzoEU57YL6J94zbWLSvl+/NngWOjppqQW55o+eVnQnioTfGXQ325XbsaZfhe9ckGJuA9upePiCFpoXv6FhVLbjQYA8LrmaGeOiN4WqwvXZsasLwPV2CYQGaHaBsZzuV45sKJMPlvieiQ2kyPdwHUaMNWwNcY3XXt9n3301shWkb6aGg/lc3sbUJADIW4g9ooQPP0aNUB/F0Qc2e9WAb/akJs9q6fxNbFkRb54i9veWbWDVcQLMZbBPRocSAewSRj+qKxzbPdNB9GgsnAcCCkc4xDqcGlJfXYk+apMNEljXY3kHpdQxnGYIFI52PHE4NKLfWYk+anBUO9Ni2jF6qT5kpxHegSwZcuQXvYDQyIqLCGHCP1EA7sKHJwASTZvdBHc0ferCX5IF8YfmkeNR69uPE6SATD5cJ0OmkUy9mWR3NjniUfDq3WJbFo9ZnP0VsxtQhBsx29ma8ChHRNCqcw01ERERERPmxh5uIiIiIqEIMuImIiIiIKsSAm4iIiIioQlMZcD8w3xRPgdRvpN/aBw50ZcpG/e+S/4kinmgYf6riBFRV7jQ4yNtGVTl41w4iIipnCgPu+9hevw0A2LE2sZ1+e0/5MBVVPI45Y1pA51ryceDp/++b8JHk+hfpNyCe9vaL8FHemxu5ggH/Cx3KW8lHoA+WXbzcUkZuW1X2aNsmIN0G0/+ntIzp9vQJ7SsfgGtBnbZp+oiIaM9NYcB9HGdWTgEAjmlLOJN+u6QH5pto194tFMA7ugTDldEaeGKdcPqp7Gcay0/Fn6rhwwyD1YEgMQwea6/s5RdyHep3Rb3lpeWxDzrxP1Eg/diCGz44Z7hi5e4nEYQW2efVbJv/iQKlUD3Gy9cmaTd8U4GSJ4iuN9D2WpBhQZ1UEE9ERDNpCgNu4GjzR7gUXIfePpt+q7QHW7exk35xFEeHauV7SEYUzGQHO/2nPFq/TH7pOr+0Ev/fK/UXOgjeD9B5eVzoGPXsymi96iF4P+gtWY+Az1/u7Kli225+6SJ8KOLEjW6T1NdAOxDzkQeBDS39doabWwWOW72JtZYMWCoYcxMRHV5TGXDvPx/mFQuQW1gbF23npC1pQCIdwcHGpgxtaZoDovDHwtJFNJ+ezH4gOmzqzYvQAFhXzKzMNCIiOgQKB9xiQOOb6PjAA/NdtGsv4XLtJVxW3kVn4NvkBj6qvYS2eR/AfXR0MRhSDIj8GA8y1o3ev1x7CZeHDJrs1+E+tkfVwXm3V9a6BQAdrKf+hqhbinMVhgvIK+rIJ6PVn1rM/P/iUxmf+s4yNFjYiNJKvtiAdXIFy0+l1gMA+HCuKVBiOdPKWzqcr9LrQaz7SSrH+sdZPecO9Fh5k8vrLVpuWN/e+gqUa86QQCTvtlVlt9tWg3LNTB63XhpRDeomAFhQU39D+SR7bzjXFNReUQZTk2IKtclKiJxoxfTFD1dd6eVGK3pWwOnDMXUovRxqBYo+oj0k1hVlOqmVfVP8zYEeZUcXnzGzSx8p/GytVoNqQRy3VO738HIbuNCSAdfA1XSdiIjoUCgccEe6qy/hPaPTT9NwO/hcEoH4gK0b+Kh2Hp9bYjAkAOxYH+C9IQF1PrfRXT2P9YE6FMvTzuJsWABkrKhjgpSn2yLNIHosevj/RLrFVx66AIAGlpf6aSXOLy3I31XReGoRQBdeLyjzYb4lQd1M3rZ271pQLykwE0G3D+eaBHUjT451Tl+ZsYBRhQUAm2oy6HwrK3DKp1ff3isu3E0V0kCZFWxbxQa3DXA3Daj2JKIsBxubLgAX1k/S+yomT5vcC1s29JoEw4odacuAlIqCHV2CaqTag6VCUga3cXBdUaY6A1FsXV2BDMDamP66EhHR5JUMuG9jxwWOaW/gteA6LgXvYKV1SgTB9mCP8Y71Abo4hWftd3ApuI5L3htYBIDELCRn8WJwXbwfhO+PMVAHDQA62Iq+0xqvh+VdD99TsNL7G2LRm8cTZQI+vC4AeQXj4u2iGt/RgHse/DCdZOU7g3/A/2QVxl0AJ1uwL0c50x7sJRmACyMevH1xVfSSJtYN4L2alYnaQLuXg50vVzWfAuV+oYv6Ltnwep8Jt+2ugavxnttC21aVAtsGBxubAJZasW0L4L3agha/ixEGwMH7AewlANBgx9YP4sFyQgPLSzIAGdr3Rt95mQauZcCCjJbtifxoL9x/ViytKhwnAc2G18uj9mBrWb3BDjYsAFortm4Az25BW4ivV5FGu/c3bQ3iuMXqEQQBOqPSz+oqVmQAXW/ghwQRER18JQNu4FjrHejtszgKiJlFmuewCGBn/UYqVQRhoPsjKI0wuK2fxcLo6CUf7Y1kHZYVAMCONxj053cTWy6ARWnyQc3Ty9DursP+RKSTqN9MrxANUtRg/7CJRu/9Ohovr6F1ErE8cB/mT6yMdbG7en+ziU46yFyyEwFh8MNmqb8hBolqsF9uxD5fR+PlMMe1N6i0om3bC5vrsL/oh1T1p5tovzCZgZaNlzsI3u+gPRP59BrsoINmNL1PvYHl1Dkv7iRpsNup9tAO20NWb7C1DjuWQ1JvNNFuTmb/VqsOaRGAu4Wb6beIiOjAKx9wS+me4RM4Nmz8X8b0fmfa13EpeH3g9SIWlyc3i8neaGB5yYWxIdJJ+kGGi60vERukmDX1XB3SCaTSTwCcXMBsTPjmw7uHzJzlXurKvVTv38xsG0Rv+KsaZLgwfiyJXOtPUvnbh4k22IYb7QBB0A5fD+8kZeRC12phe0j0BjfQtsP9q0qo1RTo5mD+NhER0TQqHXBTTl9uwYWMhTCtoPEdTeSHZ6STFNOfbvDgmdFte7qNzvueSCM56cLaMKBe4tMpJ6bRRifwRBqJ7MIyDKhSDcrA6EgiIqLpMrmA27+Brgtg8XiY4jGN7uDB2B6x01ioMtfy6TaC9ztoDqSTxGQ+zTDqIV6E9E2Iep4EcHfwFvV+ze89WthDfzKZ45ydqjJr2xZXF2kkPwwQvO+hdRJwN6+kBrvGpe5YHBphioWczMlOLJ2s1KW6SCPpiHzvlgy41hUMnSAkxtkQw5cnowsvx9/si8aGzNJdGyIimpRdBNyxPGn/Bj5a/QA7U5zmcXQhGtSZlWMeF+VarsMu9IU6CWImE8CCmpgqz4dzLRxM2Us3iVJMLFyJppH7yoH5VjTd3PQ5/ZQYHLl6zYE/MsicvW3DVyb0ayacr+KNJnpCZZQylCQeSuNi/ZfDpsFLyjMtYBlOOHXfXvcUn14QgyNXdQf+uB3gm9B1E05ixTrUlXD/xn6Z1SUx5NraiGY68eHoCtTYjCm7cXohPG52vuMGAPBtrFc1NoSIiKZe6YC7q57vz2ctvS16t7U38GI6cTOv2JzZl2tvi6n0rLdHz5ddwFFpHgCwY7yN98bMw91Y1sIv1Nxfp0P5X47pVXtqATKA7pfibzVeDgcqbqqQejnOYppAnBQDDiMNtQUZgLshifUuqTDuAvKShoF0+tj8z1nT/Q2b+3msAuXWXxADP91NFdKldB53LRFIFtq2UrJyyVPzbBfYNgDobhpQL4X1DRdpQwyCXc6Yli+aI9vdiB/rwXKFnNMCFuZgIwxE8/YUT0q9uRb2UKuQpHQe9+A82l3LgCpJiXUkI9y/8etOYzmcEcWAVKuhVpNEsC1ntJzY/Nq93HFLHTm3dhTQu4Yalj983Yhvr8MFoCUqSkREh0XpgDtBPoXF1ht4bYKPYp+4xut4zVaGD+yMa1wQgYBxNSO1o2oNtC/baCWeQClDXrLh/TAacBb6ZhOdV1uQT4b/PylDe9VDR92LedLKqKP5QzEN4NjDMGvb9s0m1l7V+vUF+sft/dRxizzdhjfwmWGqmhZQDEbcH3U0O2IawLHtod7Emq2lYmYZsmbD6w3EjDTQ9lrQeuvK0Fo2vI6Y/WTXGm14A3UZxYe97gJyCxcyGwIRER10T9y6detx+kUAmJ8XPcJpD8w38Z5xG4v29fK92bPA0VFTLcgtb/T8ukQzznd0rKoWXGiwB4JX2i3fVCAZLjQ7QJs7l4joUJpMD/dB1GjD1gDXWN3T2+xEe8XRw7QMVTy9UbMZbE+cb2LVcAHNZrBNRHSIMeAeodG2ocGFIemc75cOLFnWYHvsfZ0434EuGXDlFjzuXCKiQ40B90gNtANb5IIyq4QOGPEgmgCdThvRAyFpguoAZA125vSGRER0mBTO4SYiIiIiovzYw01EREREVCEG3EREREREFWLATURERERUIQbcREREREQVYsBNRERERFQhBtxERERERBViwE1EREREVCEG3EREREREFWLATURERERUIQbcREREREQVYsBNRERERFQhBtxERERERBViwE1EREREVCEG3EREREREFWLATURERERUIQbcREREREQVYsBNRERERFQhBtxERERERBViwE1EREREVCEG3EREREREFWLATURERERUIQbcREREREQVYsBNRERERFQhBtxERERERBViwE1EREREVCEG3EREREREFWLATURERERUIQbcREREREQVYsBNRERERFQhBtxERERERBViwE1EREREVCEG3EREREREFWLATURERERUIQbcREREREQVYsBNRERERFQhBtxERERERBX6/wE77VSSHUZSkAAAAABJRU5ErkJggg==;" vertex="1" parent="1">
          <mxGeometry x="460" y="1690" width="732" height="387" as="geometry" />
        </mxCell>
      </root>
    </mxGraphModel>
  </diagram>
</mxfile>
